{
  "accessors": [
    {
      "name": "roof_flat_edge-Mesh_0_positions",
      "componentType": 5126,
      "count": 386,
      "min": [
        -1,
        -1,
        -1
      ],
      "max": [
        1,
        -0.800000011920929,
        1
      ],
      "type": "VEC3",
      "bufferView": 0,
      "byteOffset": 0
    },
    {
      "name": "roof_flat_edge-Mesh_0_normals",
      "componentType": 5126,
      "count": 386,
      "min": [
        -1,
        -1,
        -1
      ],
      "max": [
        1,
        1,
        1
      ],
      "type": "VEC3",
      "bufferView": 1,
      "byteOffset": 0
    },
    {
      "name": "roof_flat_edge-Mesh_0_texcoords",
      "componentType": 5126,
      "count": 386,
      "min": [
        0.9082030057907104,
        0.5
      ],
      "max": [
        0.9746090173721313,
        0.5
      ],
      "type": "VEC2",
      "bufferView": 2,
      "byteOffset": 0
    },
    {
      "name": "roof_flat_edge-Mesh_0_indices",
      "componentType": 5123,
      "count": 690,
      "min": [
        0
      ],
      "max": [
        385
      ],
      "type": "SCALAR",
      "bufferView": 3,
      "byteOffset": 0
    }
  ],
  "asset": {
    "generator": "obj2gltf",
    "version": "2.0"
  },
  "buffers": [
    {
      "name": "house-6-roof_flat_edge",
      "byteLength": 13932,
      "uri": "data:application/octet-stream;base64,"
    }
  ],
  "bufferViews": [
    {
      "name": "bufferView_0",
      "buffer": 0,
      "byteLength": 4632,
      "byteOffset": 0,
      "byteStride": 12,
      "target": 34962
    },
    {
      "name": "bufferView_1",
      "buffer": 0,
      "byteLength": 4632,
      "byteOffset": 4632,
      "byteStride": 12,
      "target": 34962
    },
    {
      "name": "bufferView_2",
      "buffer": 0,
      "byteLength": 3088,
      "byteOffset": 9264,
      "byteStride": 8,
      "target": 34962
    },
    {
      "name": "bufferView_3",
      "buffer": 0,
      "byteLength": 1380,
      "byteOffset": 12352,
      "target": 34963
    },
    {
      "buffer": 0,
      "byteOffset": 13732,
      "byteLength": 200
    }
  ],
  "images": [
    {
      "name": "house-6-roof_flat_edge",
      "mimeType": "image/png",
      "bufferView": 4
    }
  ],
  "materials": [
    {
      "name": "palette",
      "pbrMetallicRoughness": {
        "baseColorTexture": {
          "index": 0
        },
        "baseColorFactor": [
          1,
          1,
          1,
          1
        ],
        "metallicFactor": 0,
        "roughnessFactor": 1
      },
      "emissiveFactor": [
        0,
        0,
        0
      ],
      "alphaMode": "OPAQUE",
      "doubleSided": false
    }
  ],
  "meshes": [
    {
      "name": "roof_flat_edge-Mesh",
      "primitives": [
        {
          "attributes": {
            "POSITION": 0,
            "NORMAL": 1,
            "TEXCOORD_0": 2
          },
          "indices": 3,
          "material": 0,
          "mode": 4
        }
      ]
    }
  ],
  "nodes": [
    {
      "name": "roof_flat_edge",
      "mesh": 0
    }
  ],
  "samplers": [
    {
      "wrapS": 10497,
      "wrapT": 10497
    }
  ],
  "scene": 0,
  "scenes": [
    {
      "nodes": [
        0
      ]
    }
  ],
  "textures": [
    {
      "name": "house-6-roof_flat_edge",
      "sampler": 0,
      "source": 0
    }
  ]
}
