{
	"asset":{
		"generator":"Khronos glTF Blender I/O v3.6.6",
		"version":"2.0"
	},
	"scene":0,
	"scenes":[
		{
			"name":"Scene",
			"nodes":[
				0
			]
		}
	],
	"nodes":[
		{
			"mesh":0,
			"name":"Cube"
		}
	],
	"meshes":[
		{
			"name":"Cube.003",
			"primitives":[
				{
					"attributes":{
						"POSITION":0,
						"TEXCOORD_0":1,
						"NORMAL":2
					},
					"indices":3
				}
			]
		}
	],
	"accessors":[
		{
			"bufferView":0,
			"componentType":5126,
			"count":92,
			"max":[
				1,
				0.10000002384185791,
				0.3499999940395355
			],
			"min":[
				-1,
				-0.19999992847442627,
				-0.25
			],
			"type":"VEC3"
		},
		{
			"bufferView":1,
			"componentType":5126,
			"count":92,
			"type":"VEC2"
		},
		{
			"bufferView":2,
			"componentType":5126,
			"count":92,
			"type":"VEC3"
		},
		{
			"bufferView":3,
			"componentType":5123,
			"count":192,
			"type":"SCALAR"
		}
	],
	"bufferViews":[
		{
			"buffer":0,
			"byteLength":1104,
			"byteOffset":0,
			"target":34962
		},
		{
			"buffer":0,
			"byteLength":736,
			"byteOffset":1104,
			"target":34962
		},
		{
			"buffer":0,
			"byteLength":1104,
			"byteOffset":1840,
			"target":34962
		},
		{
			"buffer":0,
			"byteLength":384,
			"byteOffset":2944,
			"target":34963
		}
	],
	"buffers":[
		{
			"byteLength":3328,
			"uri":"data:application/octet-stream;base64,"
		}
	]
}
