# MagicaVoxel @ Ephtracy

# group
o wall_window

# material
mtllib house-7-wall_window.mtl
usemtl palette

# normals
vn -1 0 0
vn 1 0 0
vn 0 0 1
vn 0 0 -1
vn 0 -1 0
vn 0 1 0

# texcoords
vt 0.814453 0.5
vt 0.818359 0.5
vt 0.845703 0.5
vt 0.849609 0.5
vt 0.876953 0.5
vt 0.912109 0.5
vt 0.974609 0.5

# verts
v -1 -1 1
v -1 -1 0.7
v -1 -1 0.6
v -1 -0.9 0.8
v -1 -0.9 0.7
v -1 -0.9 0.6
v -1 -0.8 1
v -1 -0.8 0.9
v -1 1 0.9
v -1 1 0.8
v -1 1 0.7
v -0.8 -0.2 0.9
v -0.8 -0.2 0.8
v -0.8 -0.1 1
v -0.8 -0.1 0.9
v -0.8 0 1
v -0.8 0 0.9
v -0.8 0.1 0.9
v -0.8 0.1 0.8
v -0.7 -0.2 1
v -0.7 -0.2 0.9
v -0.7 -0.1 1
v -0.7 -0.1 0.9
v -0.7 0 1
v -0.7 0 0.9
v -0.7 0.1 1
v -0.7 0.1 0.9
v -0.3 -0.4 1
v -0.3 -0.4 0.8
v -0.3 -0.3 1
v -0.3 -0.3 0.9
v -0.3 0.4 0.9
v -0.3 0.4 0.8
v -0.2 0.4 0.9
v -0.2 0.4 0.8
v -0.2 0.5 0.9
v -0.2 0.5 0.8
v -0.1 0.5 0.9
v -0.1 0.5 0.8
v -0.1 0.6 0.9
v -0.1 0.6 0.8
v 0.1 0.4 0.9
v 0.1 0.4 0.8
v 0.1 0.5 0.9
v 0.1 0.5 0.8
v 0.2 -0.3 0.9
v 0.2 -0.3 0.8
v 0.2 0.4 0.9
v 0.2 0.4 0.8
v 0.5 -0.2 1
v 0.5 -0.2 0.8
v 0.5 -0.1 1
v 0.5 -0.1 0.8
v 0.5 0 1
v 0.5 0 0.9
v 0.5 0 0.8
v 0.5 0.1 0.9
v 0.5 0.1 0.8
v 0.6 0 1
v 0.6 0 0.9
v 0.6 0.1 1
v 0.6 0.1 0.9
v 0.9 -1 0.8
v 0.9 -1 0.7
v 0.9 -0.9 0.8
v 0.9 -0.9 0.7
v 0.9 -0.8 0.9
v 0.9 -0.8 0.8
v 0.9 0.9 0.9
v 0.9 0.9 0.8
v -0.9 -1 0.8
v -0.9 -1 0.7
v -0.9 -0.9 0.8
v -0.9 -0.9 0.7
v -0.9 -0.8 0.9
v -0.9 -0.8 0.8
v -0.9 0.9 0.9
v -0.9 0.9 0.8
v -0.5 -0.2 1
v -0.5 -0.2 0.8
v -0.5 -0.1 1
v -0.5 -0.1 0.8
v -0.5 0 1
v -0.5 0 0.8
v -0.5 0.1 1
v -0.5 0.1 0.8
v -0.2 -0.3 0.9
v -0.2 -0.3 0.8
v -0.2 -0.1 0.8
v -0.2 0.4 0.9
v -0.2 0.4 0.8
v -0.1 0.4 0.9
v -0.1 0.4 0.8
v -0.1 0.5 0.9
v -0.1 0.5 0.8
v 0.1 0.5 0.9
v 0.1 0.5 0.8
v 0.1 0.6 0.9
v 0.1 0.6 0.8
v 0.2 0.4 0.9
v 0.2 0.4 0.8
v 0.2 0.5 0.9
v 0.2 0.5 0.8
v 0.3 -0.4 1
v 0.3 -0.4 0.8
v 0.3 -0.3 1
v 0.3 -0.3 0.9
v 0.3 0.4 0.9
v 0.3 0.4 0.8
v 0.7 -0.2 1
v 0.7 -0.2 0.9
v 0.7 -0.1 1
v 0.7 -0.1 0.9
v 0.7 0 1
v 0.7 0 0.9
v 0.7 0 0.8
v 0.7 0.1 0.9
v 0.7 0.1 0.8
v 0.8 -0.2 0.9
v 0.8 -0.2 0.8
v 0.8 0 1
v 0.8 0 0.9
v 0.8 0 0.8
v 0.8 0.1 1
v 0.8 0.1 0.9
v 1 -1 1
v 1 -1 0.7
v 1 -1 0.6
v 1 -0.9 0.8
v 1 -0.9 0.7
v 1 -0.9 0.6
v 1 -0.8 1
v 1 -0.8 0.9
v 1 1 0.9
v 1 1 0.8
v 1 1 0.7
v -1 -1 1
v -1 -0.8 1
v -0.8 -0.1 1
v -0.8 0 1
v -0.7 -0.2 1
v -0.7 -0.1 1
v -0.7 0 1
v -0.7 0.1 1
v -0.5 -0.2 1
v -0.5 -0.1 1
v -0.5 0 1
v -0.5 0.1 1
v -0.3 -0.4 1
v -0.3 -0.3 1
v 0.3 -0.4 1
v 0.3 -0.3 1
v 0.5 -0.2 1
v 0.5 -0.1 1
v 0.5 0 1
v 0.6 0 1
v 0.6 0.1 1
v 0.7 -0.2 1
v 0.7 -0.1 1
v 0.7 0 1
v 0.8 0 1
v 0.8 0.1 1
v 1 -1 1
v 1 -0.8 1
v -1 -0.8 0.9
v -1 1 0.9
v -0.9 -0.8 0.9
v -0.9 0.9 0.9
v -0.8 -0.2 0.9
v -0.8 -0.1 0.9
v -0.8 0 0.9
v -0.8 0.1 0.9
v -0.7 -0.2 0.9
v -0.7 -0.1 0.9
v -0.7 0 0.9
v -0.7 0.1 0.9
v -0.3 -0.3 0.9
v -0.3 0.4 0.9
v -0.2 -0.3 0.9
v -0.2 0.4 0.9
v -0.2 0.5 0.9
v -0.1 0.4 0.9
v -0.1 0.5 0.9
v -0.1 0.6 0.9
v 0.1 0.4 0.9
v 0.1 0.5 0.9
v 0.1 0.6 0.9
v 0.2 -0.3 0.9
v 0.2 0.4 0.9
v 0.2 0.5 0.9
v 0.3 -0.3 0.9
v 0.3 0.4 0.9
v 0.5 0 0.9
v 0.5 0.1 0.9
v 0.6 0 0.9
v 0.6 0.1 0.9
v 0.7 -0.2 0.9
v 0.7 -0.1 0.9
v 0.7 0 0.9
v 0.8 -0.2 0.9
v 0.8 0 0.9
v 0.9 -0.8 0.9
v 0.9 0.9 0.9
v 1 -0.8 0.9
v 1 1 0.9
v -0.9 -0.8 0.8
v -0.9 0.9 0.8
v -0.8 -0.2 0.8
v -0.8 0.1 0.8
v -0.7 -0.2 0.8
v -0.5 -0.2 0.8
v -0.5 -0.1 0.8
v -0.5 0 0.8
v -0.5 0.1 0.8
v -0.3 -0.4 0.8
v -0.3 0.4 0.8
v -0.2 -0.3 0.8
v -0.2 -0.1 0.8
v -0.2 0.4 0.8
v -0.2 0.5 0.8
v -0.1 -0.3 0.8
v -0.1 -0.2 0.8
v -0.1 -0.1 0.8
v -0.1 0.1 0.8
v -0.1 0.4 0.8
v -0.1 0.5 0.8
v -0.1 0.6 0.8
v 0 -0.3 0.8
v 0 -0.2 0.8
v 0 0 0.8
v 0 0.1 0.8
v 0 0.5 0.8
v 0.1 -0.2 0.8
v 0.1 0 0.8
v 0.1 0.4 0.8
v 0.1 0.5 0.8
v 0.1 0.6 0.8
v 0.2 -0.3 0.8
v 0.2 0.4 0.8
v 0.2 0.5 0.8
v 0.3 -0.4 0.8
v 0.3 0.4 0.8
v 0.5 -0.2 0.8
v 0.5 -0.1 0.8
v 0.5 0 0.8
v 0.5 0.1 0.8
v 0.7 -0.2 0.8
v 0.7 0 0.8
v 0.7 0.1 0.8
v 0.8 -0.2 0.8
v 0.8 0 0.8
v 0.9 -0.8 0.8
v 0.9 0.9 0.8
v -0.9 -1 0.7
v -0.9 -0.9 0.7
v 0.9 -1 0.7
v 0.9 -0.9 0.7
v 0.7 0 0.9
v 0.7 0.1 0.9
v 0.8 0 0.9
v 0.8 0.1 0.9
v -0.9 -1 0.8
v -0.9 -0.9 0.8
v 0.9 -1 0.8
v 0.9 -0.9 0.8
v -1 -0.9 0.7
v -1 1 0.7
v -0.2 -0.3 0.7
v -0.2 -0.1 0.7
v -0.2 0.4 0.7
v -0.1 -0.3 0.7
v -0.1 -0.2 0.7
v -0.1 -0.1 0.7
v -0.1 0.1 0.7
v -0.1 0.4 0.7
v -0.1 0.5 0.7
v 0 -0.3 0.7
v 0 -0.2 0.7
v 0 0 0.7
v 0 0.1 0.7
v 0 0.5 0.7
v 0.1 -0.2 0.7
v 0.1 0 0.7
v 0.1 0.4 0.7
v 0.1 0.5 0.7
v 0.2 -0.3 0.7
v 0.2 0.4 0.7
v 1 -0.9 0.7
v 1 1 0.7
v -1 -1 0.6
v -1 -0.9 0.6
v 1 -1 0.6
v 1 -0.9 0.6
v -1 -1 1
v 1 -1 1
v -0.9 -1 0.8
v 0.9 -1 0.8
v -1 -1 0.7
v -0.9 -1 0.7
v 0.9 -1 0.7
v 1 -1 0.7
v -1 -1 0.6
v 1 -1 0.6
v -0.9 -0.9 0.8
v 0.9 -0.9 0.8
v -0.9 -0.9 0.7
v 0.9 -0.9 0.7
v -0.3 -0.4 1
v 0.3 -0.4 1
v -0.3 -0.4 0.8
v 0.3 -0.4 0.8
v -0.7 -0.2 1
v -0.5 -0.2 1
v 0.5 -0.2 1
v 0.7 -0.2 1
v -0.8 -0.2 0.9
v -0.7 -0.2 0.9
v 0.7 -0.2 0.9
v 0.8 -0.2 0.9
v -0.8 -0.2 0.8
v -0.7 -0.2 0.8
v -0.5 -0.2 0.8
v 0.5 -0.2 0.8
v 0.7 -0.2 0.8
v 0.8 -0.2 0.8
v -0.8 -0.1 1
v -0.7 -0.1 1
v -0.8 -0.1 0.9
v -0.7 -0.1 0.9
v 0.7 0 1
v 0.8 0 1
v 0.7 0 0.9
v 0.8 0 0.9
v -0.2 0.4 0.9
v -0.1 0.4 0.9
v 0.1 0.4 0.9
v 0.2 0.4 0.9
v -0.2 0.4 0.8
v -0.1 0.4 0.8
v 0.1 0.4 0.8
v 0.2 0.4 0.8
v -0.1 0.5 0.9
v 0.1 0.5 0.9
v -0.1 0.5 0.8
v 0 0.5 0.8
v 0.1 0.5 0.8
v -0.9 0.9 0.9
v 0.9 0.9 0.9
v -0.9 0.9 0.8
v 0.9 0.9 0.8
v -1 -0.9 0.7
v 1 -0.9 0.7
v -1 -0.9 0.6
v 1 -0.9 0.6
v -1 -0.8 1
v 1 -0.8 1
v -1 -0.8 0.9
v -0.9 -0.8 0.9
v 0.9 -0.8 0.9
v 1 -0.8 0.9
v -0.9 -0.8 0.8
v 0.9 -0.8 0.8
v -0.3 -0.3 1
v 0.3 -0.3 1
v -0.3 -0.3 0.9
v -0.2 -0.3 0.9
v 0.2 -0.3 0.9
v 0.3 -0.3 0.9
v -0.2 -0.3 0.8
v -0.1 -0.3 0.8
v 0 -0.3 0.8
v 0.2 -0.3 0.8
v -0.8 0 1
v -0.7 0 1
v 0.5 0 1
v 0.6 0 1
v -0.8 0 0.9
v -0.7 0 0.9
v 0.5 0 0.9
v 0.6 0 0.9
v 0.7 0 0.9
v 0.8 0 0.9
v 0.7 0 0.8
v 0.8 0 0.8
v -0.7 0.1 1
v -0.5 0.1 1
v 0.6 0.1 1
v 0.8 0.1 1
v -0.8 0.1 0.9
v -0.7 0.1 0.9
v 0.5 0.1 0.9
v 0.6 0.1 0.9
v 0.7 0.1 0.9
v 0.8 0.1 0.9
v -0.8 0.1 0.8
v -0.5 0.1 0.8
v 0.5 0.1 0.8
v 0.7 0.1 0.8
v -0.3 0.4 0.9
v -0.2 0.4 0.9
v 0.2 0.4 0.9
v 0.3 0.4 0.9
v -0.3 0.4 0.8
v -0.2 0.4 0.8
v 0.2 0.4 0.8
v 0.3 0.4 0.8
v -0.2 0.5 0.9
v -0.1 0.5 0.9
v 0.1 0.5 0.9
v 0.2 0.5 0.9
v -0.2 0.5 0.8
v -0.1 0.5 0.8
v 0.1 0.5 0.8
v 0.2 0.5 0.8
v -0.1 0.6 0.9
v 0.1 0.6 0.9
v -0.1 0.6 0.8
v 0.1 0.6 0.8
v -1 1 0.9
v 1 1 0.9
v -1 1 0.8
v 1 1 0.8
v -1 1 0.7
v 1 1 0.7

# faces
f 4/6/1 2/6/1 1/6/1
f 5/7/1 3/7/1 2/7/1
f 5/6/1 2/6/1 4/6/1
f 6/7/1 3/7/1 5/7/1
f 7/6/1 4/6/1 1/6/1
f 8/6/1 4/6/1 7/6/1
f 9/6/1 4/6/1 8/6/1
f 10/5/1 5/5/1 4/5/1
f 10/6/1 4/6/1 9/6/1
f 11/5/1 5/5/1 10/5/1
f 15/2/1 13/2/1 12/2/1
f 16/2/1 15/2/1 14/2/1
f 17/2/1 13/2/1 15/2/1
f 17/2/1 15/2/1 16/2/1
f 18/2/1 13/2/1 17/2/1
f 19/2/1 13/2/1 18/2/1
f 22/6/1 21/6/1 20/6/1
f 23/6/1 21/6/1 22/6/1
f 26/2/1 25/2/1 24/2/1
f 27/2/1 25/2/1 26/2/1
f 30/6/1 29/6/1 28/6/1
f 31/6/1 29/6/1 30/6/1
f 32/6/1 29/6/1 31/6/1
f 33/6/1 29/6/1 32/6/1
f 36/6/1 35/6/1 34/6/1
f 37/6/1 35/6/1 36/6/1
f 40/6/1 39/6/1 38/6/1
f 41/6/1 39/6/1 40/6/1
f 44/6/1 43/6/1 42/6/1
f 45/6/1 43/6/1 44/6/1
f 48/6/1 47/6/1 46/6/1
f 49/6/1 47/6/1 48/6/1
f 52/6/1 51/6/1 50/6/1
f 53/6/1 51/6/1 52/6/1
f 54/1/1 53/1/1 52/1/1
f 55/1/1 53/1/1 54/1/1
f 56/1/1 53/1/1 55/1/1
f 57/2/1 56/2/1 55/2/1
f 58/2/1 56/2/1 57/2/1
f 61/2/1 60/2/1 59/2/1
f 62/2/1 60/2/1 61/2/1
f 65/6/1 64/6/1 63/6/1
f 66/6/1 64/6/1 65/6/1
f 69/6/1 68/6/1 67/6/1
f 70/6/1 68/6/1 69/6/1
f 71/6/2 72/6/2 73/6/2
f 73/6/2 72/6/2 74/6/2
f 75/6/2 76/6/2 77/6/2
f 77/6/2 76/6/2 78/6/2
f 79/6/2 80/6/2 81/6/2
f 81/6/2 80/6/2 82/6/2
f 81/1/2 82/1/2 83/1/2
f 83/1/2 82/1/2 84/1/2
f 83/2/2 84/2/2 85/2/2
f 85/2/2 84/2/2 86/2/2
f 87/6/2 88/6/2 89/6/2
f 87/6/2 89/6/2 90/6/2
f 90/6/2 89/6/2 91/6/2
f 92/6/2 93/6/2 94/6/2
f 94/6/2 93/6/2 95/6/2
f 96/6/2 97/6/2 98/6/2
f 98/6/2 97/6/2 99/6/2
f 100/6/2 101/6/2 102/6/2
f 102/6/2 101/6/2 103/6/2
f 104/6/2 105/6/2 106/6/2
f 106/6/2 105/6/2 107/6/2
f 107/6/2 105/6/2 108/6/2
f 108/6/2 105/6/2 109/6/2
f 110/6/2 111/6/2 112/6/2
f 112/6/2 111/6/2 113/6/2
f 112/1/2 113/1/2 114/1/2
f 114/1/2 113/1/2 115/1/2
f 115/2/2 116/2/2 117/2/2
f 117/2/2 116/2/2 118/2/2
f 119/2/2 120/2/2 122/2/2
f 122/2/2 120/2/2 123/2/2
f 121/2/2 122/2/2 124/2/2
f 124/2/2 122/2/2 125/2/2
f 126/6/2 127/6/2 129/6/2
f 127/7/2 128/7/2 130/7/2
f 129/6/2 127/6/2 130/6/2
f 130/7/2 128/7/2 131/7/2
f 126/6/2 129/6/2 132/6/2
f 132/6/2 129/6/2 133/6/2
f 133/6/2 129/6/2 134/6/2
f 129/5/2 130/5/2 135/5/2
f 134/6/2 129/6/2 135/6/2
f 135/5/2 130/5/2 136/5/2
f 142/2/3 140/2/3 139/2/3
f 143/2/3 140/2/3 142/2/3
f 145/6/3 142/6/3 141/6/3
f 146/1/3 143/1/3 142/1/3
f 146/6/3 142/6/3 145/6/3
f 147/2/3 144/2/3 143/2/3
f 147/1/3 143/1/3 146/1/3
f 148/2/3 144/2/3 147/2/3
f 151/6/3 150/6/3 149/6/3
f 152/6/3 150/6/3 151/6/3
f 156/1/3 155/1/3 154/1/3
f 158/6/3 154/6/3 153/6/3
f 159/1/3 156/1/3 154/1/3
f 159/6/3 154/6/3 158/6/3
f 160/2/3 157/2/3 156/2/3
f 160/1/3 156/1/3 159/1/3
f 161/2/3 157/2/3 160/2/3
f 162/2/3 157/2/3 161/2/3
f 163/6/3 138/6/3 137/6/3
f 164/6/3 138/6/3 163/6/3
f 167/6/3 166/6/3 165/6/3
f 168/6/3 166/6/3 167/6/3
f 173/2/3 170/2/3 169/2/3
f 174/2/3 170/2/3 173/2/3
f 175/2/3 172/2/3 171/2/3
f 176/2/3 172/2/3 175/2/3
f 179/6/3 178/6/3 177/6/3
f 180/6/3 178/6/3 179/6/3
f 182/6/3 181/6/3 180/6/3
f 183/6/3 181/6/3 182/6/3
f 186/6/3 184/6/3 183/6/3
f 187/6/3 184/6/3 186/6/3
f 189/6/3 186/6/3 185/6/3
f 190/6/3 186/6/3 189/6/3
f 191/6/3 189/6/3 188/6/3
f 192/6/3 189/6/3 191/6/3
f 195/2/3 194/2/3 193/2/3
f 196/2/3 194/2/3 195/2/3
f 200/2/3 198/2/3 197/2/3
f 200/2/3 199/2/3 198/2/3
f 201/2/3 199/2/3 200/2/3
f 203/6/3 166/6/3 168/6/3
f 204/6/3 203/6/3 202/6/3
f 205/6/3 166/6/3 203/6/3
f 205/6/3 203/6/3 204/6/3
f 208/5/3 207/5/3 206/5/3
f 209/5/3 207/5/3 208/5/3
f 210/5/3 208/5/3 206/5/3
f 211/5/3 210/5/3 206/5/3
f 214/5/3 207/5/3 209/5/3
f 215/5/3 213/5/3 212/5/3
f 215/5/3 214/5/3 213/5/3
f 215/5/3 211/5/3 206/5/3
f 215/5/3 212/5/3 211/5/3
f 216/5/3 207/5/3 214/5/3
f 216/5/3 214/5/3 215/5/3
f 219/5/3 207/5/3 216/5/3
f 220/5/3 207/5/3 219/5/3
f 221/3/3 218/3/3 217/3/3
f 222/3/3 218/3/3 221/3/3
f 223/4/3 219/4/3 218/4/3
f 223/3/3 218/3/3 222/3/3
f 224/4/3 219/4/3 223/4/3
f 225/4/3 219/4/3 224/4/3
f 226/5/3 207/5/3 220/5/3
f 227/5/3 207/5/3 226/5/3
f 228/4/3 222/4/3 221/4/3
f 229/3/3 223/3/3 222/3/3
f 229/4/3 222/4/3 228/4/3
f 229/3/3 224/3/3 223/3/3
f 230/3/3 224/3/3 229/3/3
f 231/4/3 225/4/3 224/4/3
f 231/3/3 224/3/3 230/3/3
f 231/4/3 226/4/3 225/4/3
f 232/4/3 226/4/3 231/4/3
f 233/4/3 230/4/3 229/4/3
f 233/3/3 229/3/3 228/3/3
f 234/3/3 232/3/3 231/3/3
f 234/4/3 230/4/3 233/4/3
f 234/3/3 231/3/3 230/3/3
f 235/3/3 232/3/3 234/3/3
f 236/3/3 232/3/3 235/3/3
f 237/5/3 207/5/3 227/5/3
f 238/3/3 235/3/3 234/3/3
f 238/3/3 233/3/3 228/3/3
f 238/3/3 234/3/3 233/3/3
f 239/3/3 235/3/3 238/3/3
f 240/5/3 237/5/3 236/5/3
f 241/5/3 215/5/3 206/5/3
f 242/5/3 240/5/3 239/5/3
f 243/5/3 242/5/3 241/5/3
f 244/5/3 242/5/3 243/5/3
f 245/5/3 242/5/3 244/5/3
f 246/5/3 242/5/3 245/5/3
f 247/5/3 243/5/3 241/5/3
f 249/5/3 242/5/3 246/5/3
f 250/5/3 247/5/3 241/5/3
f 251/5/3 249/5/3 248/5/3
f 252/5/3 241/5/3 206/5/3
f 252/5/3 251/5/3 250/5/3
f 252/5/3 250/5/3 241/5/3
f 253/5/3 249/5/3 251/5/3
f 253/5/3 251/5/3 252/5/3
f 253/5/3 237/5/3 240/5/3
f 253/5/3 242/5/3 249/5/3
f 253/5/3 207/5/3 237/5/3
f 253/5/3 240/5/3 242/5/3
f 256/7/3 255/7/3 254/7/3
f 257/7/3 255/7/3 256/7/3
f 258/2/4 259/2/4 260/2/4
f 260/2/4 259/2/4 261/2/4
f 262/6/4 263/6/4 264/6/4
f 264/6/4 263/6/4 265/6/4
f 266/5/4 267/5/4 268/5/4
f 268/5/4 267/5/4 269/5/4
f 269/5/4 267/5/4 270/5/4
f 266/5/4 268/5/4 271/5/4
f 268/3/4 269/3/4 271/3/4
f 271/3/4 269/3/4 272/3/4
f 269/4/4 270/4/4 273/4/4
f 272/3/4 269/3/4 273/3/4
f 273/4/4 270/4/4 274/4/4
f 270/5/4 267/5/4 275/5/4
f 274/4/4 270/4/4 275/4/4
f 275/5/4 267/5/4 276/5/4
f 271/4/4 272/4/4 277/4/4
f 266/5/4 271/5/4 277/5/4
f 273/3/4 274/3/4 278/3/4
f 277/4/4 272/4/4 278/4/4
f 272/3/4 273/3/4 278/3/4
f 278/3/4 274/3/4 279/3/4
f 275/4/4 276/4/4 280/4/4
f 279/3/4 274/3/4 280/3/4
f 274/4/4 275/4/4 280/4/4
f 276/5/4 267/5/4 281/5/4
f 280/4/4 276/4/4 281/4/4
f 278/4/4 279/4/4 282/4/4
f 277/3/4 278/3/4 282/3/4
f 279/3/4 280/3/4 283/3/4
f 282/4/4 279/4/4 283/4/4
f 280/3/4 281/3/4 283/3/4
f 283/3/4 281/3/4 284/3/4
f 281/5/4 267/5/4 285/5/4
f 284/3/4 281/3/4 285/3/4
f 266/5/4 277/5/4 286/5/4
f 277/3/4 282/3/4 286/3/4
f 283/3/4 284/3/4 286/3/4
f 282/3/4 283/3/4 286/3/4
f 284/5/4 285/5/4 287/5/4
f 286/3/4 284/3/4 287/3/4
f 266/5/4 286/5/4 288/5/4
f 286/5/4 287/5/4 288/5/4
f 285/5/4 267/5/4 289/5/4
f 288/5/4 287/5/4 289/5/4
f 287/5/4 285/5/4 289/5/4
f 290/7/4 291/7/4 292/7/4
f 292/7/4 291/7/4 293/7/4
f 296/6/5 295/6/5 294/6/5
f 297/6/5 295/6/5 296/6/5
f 298/6/5 296/6/5 294/6/5
f 299/6/5 296/6/5 298/6/5
f 300/6/5 295/6/5 297/6/5
f 301/6/5 295/6/5 300/6/5
f 302/7/5 299/7/5 298/7/5
f 302/7/5 300/7/5 299/7/5
f 302/7/5 301/7/5 300/7/5
f 303/7/5 301/7/5 302/7/5
f 306/5/5 305/5/5 304/5/5
f 307/5/5 305/5/5 306/5/5
f 310/6/5 309/6/5 308/6/5
f 311/6/5 309/6/5 310/6/5
f 317/6/5 313/6/5 312/6/5
f 318/6/5 315/6/5 314/6/5
f 320/2/5 317/2/5 316/2/5
f 321/6/5 313/6/5 317/6/5
f 321/2/5 317/2/5 320/2/5
f 322/6/5 313/6/5 321/6/5
f 323/6/5 318/6/5 314/6/5
f 324/2/5 319/2/5 318/2/5
f 324/6/5 318/6/5 323/6/5
f 325/2/5 319/2/5 324/2/5
f 328/2/5 327/2/5 326/2/5
f 329/2/5 327/2/5 328/2/5
f 332/2/5 331/2/5 330/2/5
f 333/2/5 331/2/5 332/2/5
f 338/6/5 335/6/5 334/6/5
f 339/6/5 335/6/5 338/6/5
f 340/6/5 337/6/5 336/6/5
f 341/6/5 337/6/5 340/6/5
f 344/6/5 343/6/5 342/6/5
f 345/6/5 343/6/5 344/6/5
f 346/6/5 343/6/5 345/6/5
f 349/6/5 348/6/5 347/6/5
f 350/6/5 348/6/5 349/6/5
f 351/7/6 352/7/6 353/7/6
f 353/7/6 352/7/6 354/7/6
f 355/6/6 356/6/6 357/6/6
f 357/6/6 356/6/6 358/6/6
f 358/6/6 356/6/6 359/6/6
f 359/6/6 356/6/6 360/6/6
f 358/6/6 359/6/6 361/6/6
f 361/6/6 359/6/6 362/6/6
f 363/6/6 364/6/6 365/6/6
f 365/6/6 364/6/6 366/6/6
f 366/6/6 364/6/6 367/6/6
f 367/6/6 364/6/6 368/6/6
f 366/6/6 367/6/6 369/6/6
f 369/6/6 367/6/6 370/6/6
f 370/6/6 367/6/6 371/6/6
f 371/6/6 367/6/6 372/6/6
f 373/2/6 374/2/6 377/2/6
f 377/2/6 374/2/6 378/2/6
f 375/1/6 376/1/6 379/1/6
f 379/1/6 376/1/6 380/1/6
f 381/2/6 382/2/6 383/2/6
f 383/2/6 382/2/6 384/2/6
f 385/2/6 386/2/6 390/2/6
f 387/2/6 388/2/6 392/2/6
f 392/2/6 388/2/6 393/2/6
f 393/2/6 388/2/6 394/2/6
f 389/2/6 390/2/6 395/2/6
f 390/2/6 386/2/6 396/2/6
f 395/2/6 390/2/6 396/2/6
f 391/2/6 392/2/6 397/2/6
f 392/2/6 393/2/6 397/2/6
f 397/2/6 393/2/6 398/2/6
f 399/6/6 400/6/6 403/6/6
f 403/6/6 400/6/6 404/6/6
f 401/6/6 402/6/6 405/6/6
f 405/6/6 402/6/6 406/6/6
f 407/6/6 408/6/6 411/6/6
f 411/6/6 408/6/6 412/6/6
f 409/6/6 410/6/6 413/6/6
f 413/6/6 410/6/6 414/6/6
f 415/6/6 416/6/6 417/6/6
f 417/6/6 416/6/6 418/6/6
f 419/6/6 420/6/6 421/6/6
f 421/6/6 420/6/6 422/6/6
f 421/5/6 422/5/6 423/5/6
f 423/5/6 422/5/6 424/5/6
