# MagicaVoxel @ Ephtracy

# group
o roof_flat_inner_corner

# material
mtllib house-5-roof_flat_inner_corner.mtl
usemtl palette

# normals
vn -1 0 0
vn 1 0 0
vn 0 0 1
vn 0 0 -1
vn 0 -1 0
vn 0 1 0

# texcoords
vt 0.908203 0.5
vt 0.912109 0.5
vt 0.916016 0.5
vt 0.970703 0.5

# verts
v -1 -1 1
v -1 -1 0.1
v -1 -1 -1
v -1 -0.9 1
v -1 -0.9 0.7
v -1 -0.9 0.1
v -1 -0.9 -1
v -1 -0.8 1
v -1 -0.8 0.7
v -0.7 -0.9 1
v -0.7 -0.9 0.7
v -0.7 -0.8 1
v -0.7 -0.8 0.7
v 1 -1 1
v 1 -1 -0.6
v 1 -1 -1
v 1 -0.9 1
v 1 -0.9 -0.6
v 1 -0.9 -1
v -1 -1 1
v -1 -0.9 1
v -1 -0.8 1
v -0.7 -0.9 1
v -0.7 -0.8 1
v -0.6 -1 1
v -0.6 -0.9 1
v -0.2 -1 1
v -0.2 -0.9 1
v 0 -1 1
v 0 -0.9 1
v 0.2 -1 1
v 0.2 -0.9 1
v 0.4 -1 1
v 0.4 -0.9 1
v 0.6 -1 1
v 0.6 -0.9 1
v 0.8 -1 1
v 0.8 -0.9 1
v 1 -1 1
v 1 -0.9 1
v -1 -0.9 0.7
v -1 -0.8 0.7
v -0.7 -0.9 0.7
v -0.7 -0.8 0.7
v -1 -1 -1
v -1 -0.9 -1
v -0.6 -1 -1
v -0.6 -0.9 -1
v -0.4 -1 -1
v -0.4 -0.9 -1
v -0.2 -1 -1
v -0.2 -0.9 -1
v 0.2 -1 -1
v 0.2 -0.9 -1
v 0.4 -1 -1
v 0.4 -0.9 -1
v 0.6 -1 -1
v 0.6 -0.9 -1
v 0.8 -1 -1
v 0.8 -0.9 -1
v 1 -1 -1
v 1 -0.9 -1
v -1 -1 1
v -0.6 -1 1
v -0.2 -1 1
v 0 -1 1
v 0.2 -1 1
v 0.4 -1 1
v 0.6 -1 1
v 0.8 -1 1
v 1 -1 1
v 0.4 -1 0.9
v 0.6 -1 0.9
v -0.6 -1 0.8
v -0.4 -1 0.8
v 0.6 -1 0.7
v 0.8 -1 0.7
v -0.2 -1 0.4
v 0 -1 0.4
v 0 -1 0.2
v 0.2 -1 0.2
v -1 -1 0.1
v -0.8 -1 0.1
v 0.2 -1 0
v 0.4 -1 0
v -0.7 -1 -0.1
v -0.6 -1 -0.1
v -0.9 -1 -0.2
v -0.8 -1 -0.2
v -0.7 -1 -0.2
v 0.4 -1 -0.2
v 0.6 -1 -0.2
v -0.9 -1 -0.3
v -0.8 -1 -0.3
v -0.6 -1 -0.3
v -0.4 -1 -0.3
v 0.8 -1 -0.6
v 1 -1 -0.6
v -0.2 -1 -0.7
v 0 -1 -0.7
v -1 -1 -1
v -0.6 -1 -1
v -0.4 -1 -1
v -0.2 -1 -1
v 0.2 -1 -1
v 0.4 -1 -1
v 0.6 -1 -1
v 0.8 -1 -1
v 1 -1 -1
v -0.7 -0.9 1
v -0.6 -0.9 1
v -0.2 -0.9 1
v 0 -0.9 1
v 0.2 -0.9 1
v 0.4 -0.9 1
v 0.6 -0.9 1
v 0.8 -0.9 1
v 1 -0.9 1
v 0.4 -0.9 0.9
v 0.6 -0.9 0.9
v -0.6 -0.9 0.8
v -0.4 -0.9 0.8
v -1 -0.9 0.7
v -0.7 -0.9 0.7
v 0.6 -0.9 0.7
v 0.8 -0.9 0.7
v -0.2 -0.9 0.4
v 0 -0.9 0.4
v 0 -0.9 0.2
v 0.2 -0.9 0.2
v -1 -0.9 0.1
v -0.8 -0.9 0.1
v 0.2 -0.9 0
v 0.4 -0.9 0
v -0.7 -0.9 -0.1
v -0.6 -0.9 -0.1
v -0.9 -0.9 -0.2
v -0.8 -0.9 -0.2
v -0.7 -0.9 -0.2
v 0.4 -0.9 -0.2
v 0.6 -0.9 -0.2
v -0.9 -0.9 -0.3
v -0.8 -0.9 -0.3
v -0.6 -0.9 -0.3
v -0.4 -0.9 -0.3
v 0.8 -0.9 -0.6
v 1 -0.9 -0.6
v -0.2 -0.9 -0.7
v 0 -0.9 -0.7
v -1 -0.9 -1
v -0.6 -0.9 -1
v -0.4 -0.9 -1
v -0.2 -0.9 -1
v 0.2 -0.9 -1
v 0.4 -0.9 -1
v 0.6 -0.9 -1
v 0.8 -0.9 -1
v 1 -0.9 -1
v -1 -0.8 1
v -0.7 -0.8 1
v -1 -0.8 0.7
v -0.7 -0.8 0.7

# faces
f 4/3/1 2/3/1 1/3/1
f 5/3/1 2/3/1 4/3/1
f 6/2/1 3/2/1 2/2/1
f 6/3/1 2/3/1 5/3/1
f 7/2/1 3/2/1 6/2/1
f 8/4/1 5/4/1 4/4/1
f 9/4/1 5/4/1 8/4/1
f 10/4/2 11/4/2 12/4/2
f 12/4/2 11/4/2 13/4/2
f 14/2/2 15/2/2 17/2/2
f 15/3/2 16/3/2 18/3/2
f 17/2/2 15/2/2 18/2/2
f 18/3/2 16/3/2 19/3/2
f 23/3/3 21/3/3 20/3/3
f 23/4/3 22/4/3 21/4/3
f 24/4/3 22/4/3 23/4/3
f 25/3/3 23/3/3 20/3/3
f 26/3/3 23/3/3 25/3/3
f 27/1/3 26/1/3 25/1/3
f 28/1/3 26/1/3 27/1/3
f 29/3/3 28/3/3 27/3/3
f 30/3/3 28/3/3 29/3/3
f 31/2/3 30/2/3 29/2/3
f 32/2/3 30/2/3 31/2/3
f 33/1/3 32/1/3 31/1/3
f 34/1/3 32/1/3 33/1/3
f 35/2/3 34/2/3 33/2/3
f 36/2/3 34/2/3 35/2/3
f 37/1/3 36/1/3 35/1/3
f 38/1/3 36/1/3 37/1/3
f 39/2/3 38/2/3 37/2/3
f 40/2/3 38/2/3 39/2/3
f 41/4/4 42/4/4 43/4/4
f 43/4/4 42/4/4 44/4/4
f 45/2/4 46/2/4 47/2/4
f 47/2/4 46/2/4 48/2/4
f 47/3/4 48/3/4 49/3/4
f 49/3/4 48/3/4 50/3/4
f 49/1/4 50/1/4 51/1/4
f 51/1/4 50/1/4 52/1/4
f 51/3/4 52/3/4 53/3/4
f 53/3/4 52/3/4 54/3/4
f 53/2/4 54/2/4 55/2/4
f 55/2/4 54/2/4 56/2/4
f 55/1/4 56/1/4 57/1/4
f 57/1/4 56/1/4 58/1/4
f 57/2/4 58/2/4 59/2/4
f 59/2/4 58/2/4 60/2/4
f 59/3/4 60/3/4 61/3/4
f 61/3/4 60/3/4 62/3/4
f 72/1/5 68/1/5 67/1/5
f 72/2/5 69/2/5 68/2/5
f 73/1/5 70/1/5 69/1/5
f 73/2/5 69/2/5 72/2/5
f 74/3/5 64/3/5 63/3/5
f 74/1/5 65/1/5 64/1/5
f 75/1/5 65/1/5 74/1/5
f 76/1/5 70/1/5 73/1/5
f 76/3/5 73/3/5 72/3/5
f 77/2/5 71/2/5 70/2/5
f 77/1/5 70/1/5 76/1/5
f 78/1/5 65/1/5 75/1/5
f 78/3/5 66/3/5 65/3/5
f 79/2/5 67/2/5 66/2/5
f 79/3/5 66/3/5 78/3/5
f 80/2/5 79/2/5 78/2/5
f 80/2/5 67/2/5 79/2/5
f 81/1/5 72/1/5 67/1/5
f 81/2/5 67/2/5 80/2/5
f 82/3/5 74/3/5 63/3/5
f 83/3/5 74/3/5 82/3/5
f 84/1/5 72/1/5 81/1/5
f 84/3/5 81/3/5 80/3/5
f 85/3/5 76/3/5 72/3/5
f 85/1/5 72/1/5 84/1/5
f 86/3/5 74/3/5 83/3/5
f 87/2/5 75/2/5 74/2/5
f 87/3/5 74/3/5 86/3/5
f 88/2/5 83/2/5 82/2/5
f 89/3/5 86/3/5 83/3/5
f 89/2/5 83/2/5 88/2/5
f 90/2/5 87/2/5 86/2/5
f 90/3/5 86/3/5 89/3/5
f 91/3/5 76/3/5 85/3/5
f 91/2/5 85/2/5 84/2/5
f 92/2/5 77/2/5 76/2/5
f 92/3/5 76/3/5 91/3/5
f 93/2/5 88/2/5 82/2/5
f 93/3/5 89/3/5 88/3/5
f 94/2/5 90/2/5 89/2/5
f 94/3/5 89/3/5 93/3/5
f 95/2/5 87/2/5 90/2/5
f 95/2/5 90/2/5 94/2/5
f 95/2/5 75/2/5 87/2/5
f 96/1/5 78/1/5 75/1/5
f 96/2/5 75/2/5 95/2/5
f 97/2/5 71/2/5 77/2/5
f 97/2/5 77/2/5 92/2/5
f 98/2/5 71/2/5 97/2/5
f 99/1/5 78/1/5 96/1/5
f 99/2/5 80/2/5 78/2/5
f 100/3/5 84/3/5 80/3/5
f 100/2/5 80/2/5 99/2/5
f 101/2/5 95/2/5 94/2/5
f 101/2/5 94/2/5 93/2/5
f 101/2/5 93/2/5 82/2/5
f 102/3/5 96/3/5 95/3/5
f 102/2/5 95/2/5 101/2/5
f 103/1/5 99/1/5 96/1/5
f 103/3/5 96/3/5 102/3/5
f 104/3/5 100/3/5 99/3/5
f 104/1/5 99/1/5 103/1/5
f 105/2/5 91/2/5 84/2/5
f 105/3/5 100/3/5 104/3/5
f 105/3/5 84/3/5 100/3/5
f 106/1/5 92/1/5 91/1/5
f 106/2/5 91/2/5 105/2/5
f 107/2/5 97/2/5 92/2/5
f 107/1/5 92/1/5 106/1/5
f 108/3/5 98/3/5 97/3/5
f 108/2/5 97/2/5 107/2/5
f 109/3/5 98/3/5 108/3/5
f 114/1/6 115/1/6 119/1/6
f 115/2/6 116/2/6 119/2/6
f 116/1/6 117/1/6 120/1/6
f 119/2/6 116/2/6 120/2/6
f 110/3/6 111/3/6 121/3/6
f 111/1/6 112/1/6 121/1/6
f 121/1/6 112/1/6 122/1/6
f 110/3/6 121/3/6 124/3/6
f 120/1/6 117/1/6 125/1/6
f 119/3/6 120/3/6 125/3/6
f 117/2/6 118/2/6 126/2/6
f 125/1/6 117/1/6 126/1/6
f 112/3/6 113/3/6 127/3/6
f 122/1/6 112/1/6 127/1/6
f 113/2/6 114/2/6 128/2/6
f 127/3/6 113/3/6 128/3/6
f 127/2/6 128/2/6 129/2/6
f 128/2/6 114/2/6 129/2/6
f 114/1/6 119/1/6 130/1/6
f 129/2/6 114/2/6 130/2/6
f 123/3/6 124/3/6 131/3/6
f 131/3/6 124/3/6 132/3/6
f 130/1/6 119/1/6 133/1/6
f 129/3/6 130/3/6 133/3/6
f 119/3/6 125/3/6 134/3/6
f 133/1/6 119/1/6 134/1/6
f 132/3/6 124/3/6 135/3/6
f 124/3/6 121/3/6 135/3/6
f 121/2/6 122/2/6 136/2/6
f 135/3/6 121/3/6 136/3/6
f 131/2/6 132/2/6 137/2/6
f 132/3/6 135/3/6 138/3/6
f 137/2/6 132/2/6 138/2/6
f 135/2/6 136/2/6 139/2/6
f 138/3/6 135/3/6 139/3/6
f 134/3/6 125/3/6 140/3/6
f 133/2/6 134/2/6 140/2/6
f 125/2/6 126/2/6 141/2/6
f 140/3/6 125/3/6 141/3/6
f 131/2/6 137/2/6 142/2/6
f 137/3/6 138/3/6 142/3/6
f 138/2/6 139/2/6 143/2/6
f 142/3/6 138/3/6 143/3/6
f 139/2/6 136/2/6 144/2/6
f 143/2/6 139/2/6 144/2/6
f 136/2/6 122/2/6 144/2/6
f 122/1/6 127/1/6 145/1/6
f 144/2/6 122/2/6 145/2/6
f 126/2/6 118/2/6 146/2/6
f 141/2/6 126/2/6 146/2/6
f 146/2/6 118/2/6 147/2/6
f 145/1/6 127/1/6 148/1/6
f 127/2/6 129/2/6 148/2/6
f 129/3/6 133/3/6 149/3/6
f 148/2/6 129/2/6 149/2/6
f 142/2/6 143/2/6 150/2/6
f 131/2/6 142/2/6 150/2/6
f 143/2/6 144/2/6 150/2/6
f 144/3/6 145/3/6 151/3/6
f 150/2/6 144/2/6 151/2/6
f 145/1/6 148/1/6 152/1/6
f 151/3/6 145/3/6 152/3/6
f 148/3/6 149/3/6 153/3/6
f 152/1/6 148/1/6 153/1/6
f 149/3/6 133/3/6 154/3/6
f 153/3/6 149/3/6 154/3/6
f 133/2/6 140/2/6 154/2/6
f 140/1/6 141/1/6 155/1/6
f 154/2/6 140/2/6 155/2/6
f 141/2/6 146/2/6 156/2/6
f 155/1/6 141/1/6 156/1/6
f 146/3/6 147/3/6 157/3/6
f 156/2/6 146/2/6 157/2/6
f 157/3/6 147/3/6 158/3/6
f 159/4/6 160/4/6 161/4/6
f 161/4/6 160/4/6 162/4/6
