# MagicaVoxel @ Ephtracy

# group
o wall_sub_flat

# material
mtllib house-8-wall_sub_flat.mtl
usemtl palette

# normals
vn -1 0 0
vn 1 0 0
vn 0 0 1
vn 0 0 -1
vn 0 -1 0
vn 0 1 0

# texcoords
vt 0.876953 0.5
vt 0.912109 0.5
vt 0.974609 0.5

# verts
v -0.5 -1 0.5
v -0.5 -1 0.2
v -0.5 -1 0.1
v -0.5 -0.9 0.3
v -0.5 -0.9 0.2
v -0.5 -0.9 0.1
v -0.5 -0.8 0.5
v -0.5 -0.8 0.4
v -0.5 1 0.4
v -0.5 1 0.3
v -0.5 1 0.2
v -0.3 -0.6 0.4
v -0.3 -0.6 0.3
v -0.3 -0.4 0.4
v -0.3 -0.4 0.3
v -0.2 -0.4 0.4
v -0.2 -0.4 0.3
v -0.2 -0.2 0.4
v -0.2 -0.2 0.3
v -0.1 -0.2 0.4
v -0.1 -0.2 0.3
v -0.1 0 0.4
v -0.1 0 0.3
v 0 0 0.4
v 0 0 0.3
v 0 0.3 0.4
v 0 0.3 0.3
v 0.1 0.3 0.4
v 0.1 0.3 0.3
v 0.1 0.5 0.4
v 0.1 0.5 0.3
v 0.2 0.5 0.4
v 0.2 0.5 0.3
v 0.2 0.7 0.4
v 0.2 0.7 0.3
v 0.3 0.7 0.4
v 0.3 0.7 0.3
v 0.3 0.9 0.4
v 0.3 0.9 0.3
v 0.4 -0.8 0.4
v 0.4 -0.8 0.3
v 0.4 0.7 0.4
v 0.4 0.7 0.3
v -0.4 -1 0.3
v -0.4 -1 0.2
v -0.4 -0.9 0.3
v -0.4 -0.9 0.2
v -0.4 -0.6 0.4
v -0.4 -0.6 0.3
v -0.4 0.9 0.4
v -0.4 0.9 0.3
v -0.3 -0.8 0.4
v -0.3 -0.8 0.3
v -0.3 -0.6 0.4
v -0.3 -0.6 0.3
v -0.2 -0.6 0.4
v -0.2 -0.6 0.3
v -0.2 -0.4 0.4
v -0.2 -0.4 0.3
v -0.1 -0.4 0.4
v -0.1 -0.4 0.3
v -0.1 -0.2 0.4
v -0.1 -0.2 0.3
v 0 -0.2 0.4
v 0 -0.2 0.3
v 0 0 0.4
v 0 0 0.3
v 0.1 0 0.4
v 0.1 0 0.3
v 0.1 0.3 0.4
v 0.1 0.3 0.3
v 0.2 0.3 0.4
v 0.2 0.3 0.3
v 0.2 0.5 0.4
v 0.2 0.5 0.3
v 0.3 0.5 0.4
v 0.3 0.5 0.3
v 0.3 0.7 0.4
v 0.3 0.7 0.3
v 0.5 -1 0.5
v 0.5 -1 0.3
v 0.5 -1 0.2
v 0.5 -1 0.1
v 0.5 -0.9 0.3
v 0.5 -0.9 0.2
v 0.5 -0.9 0.1
v 0.5 -0.8 0.5
v 0.5 -0.8 0.4
v 0.5 1 0.4
v 0.5 1 0.3
v 0.5 1 0.2
v -0.5 -1 0.5
v -0.5 -0.8 0.5
v 0.5 -1 0.5
v 0.5 -0.8 0.5
v -0.5 -0.8 0.4
v -0.5 1 0.4
v -0.4 -0.6 0.4
v -0.4 0.9 0.4
v -0.3 -0.8 0.4
v -0.3 -0.6 0.4
v -0.3 -0.4 0.4
v -0.2 -0.6 0.4
v -0.2 -0.4 0.4
v -0.2 -0.2 0.4
v -0.1 -0.4 0.4
v -0.1 -0.2 0.4
v -0.1 0 0.4
v 0 -0.2 0.4
v 0 0 0.4
v 0 0.3 0.4
v 0.1 0 0.4
v 0.1 0.3 0.4
v 0.1 0.5 0.4
v 0.2 0.3 0.4
v 0.2 0.5 0.4
v 0.2 0.7 0.4
v 0.3 0.5 0.4
v 0.3 0.7 0.4
v 0.3 0.9 0.4
v 0.4 -0.8 0.4
v 0.4 0.7 0.4
v 0.5 -0.8 0.4
v 0.5 1 0.4
v -0.4 -0.6 0.3
v -0.4 0.9 0.3
v -0.3 -0.8 0.3
v -0.3 -0.6 0.3
v -0.3 -0.4 0.3
v -0.2 -0.6 0.3
v -0.2 -0.4 0.3
v -0.2 -0.2 0.3
v -0.1 -0.4 0.3
v -0.1 -0.2 0.3
v -0.1 0 0.3
v 0 -0.2 0.3
v 0 0 0.3
v 0 0.3 0.3
v 0.1 0 0.3
v 0.1 0.3 0.3
v 0.1 0.5 0.3
v 0.2 0.3 0.3
v 0.2 0.5 0.3
v 0.2 0.7 0.3
v 0.3 0.5 0.3
v 0.3 0.7 0.3
v 0.3 0.9 0.3
v 0.4 -0.8 0.3
v 0.4 0.7 0.3
v -0.4 -1 0.2
v -0.4 -0.9 0.2
v 0.5 -1 0.2
v 0.5 -0.9 0.2
v -0.4 -1 0.3
v -0.4 -0.9 0.3
v 0.5 -1 0.3
v 0.5 -0.9 0.3
v -0.5 -0.9 0.2
v -0.5 1 0.2
v 0.5 -0.9 0.2
v 0.5 1 0.2
v -0.5 -1 0.1
v -0.5 -0.9 0.1
v 0.5 -1 0.1
v 0.5 -0.9 0.1
v -0.5 -1 0.5
v 0.5 -1 0.5
v -0.4 -1 0.3
v 0.5 -1 0.3
v -0.5 -1 0.2
v -0.4 -1 0.2
v 0.5 -1 0.2
v -0.5 -1 0.1
v 0.5 -1 0.1
v -0.4 -0.9 0.3
v 0.5 -0.9 0.3
v -0.4 -0.9 0.2
v 0.5 -0.9 0.2
v -0.3 -0.6 0.4
v -0.2 -0.6 0.4
v -0.3 -0.6 0.3
v -0.2 -0.6 0.3
v -0.2 -0.4 0.4
v -0.1 -0.4 0.4
v -0.2 -0.4 0.3
v -0.1 -0.4 0.3
v -0.1 -0.2 0.4
v 0 -0.2 0.4
v -0.1 -0.2 0.3
v 0 -0.2 0.3
v 0 0 0.4
v 0.1 0 0.4
v 0 0 0.3
v 0.1 0 0.3
v 0.1 0.3 0.4
v 0.2 0.3 0.4
v 0.1 0.3 0.3
v 0.2 0.3 0.3
v 0.2 0.5 0.4
v 0.3 0.5 0.4
v 0.2 0.5 0.3
v 0.3 0.5 0.3
v 0.3 0.7 0.4
v 0.4 0.7 0.4
v 0.3 0.7 0.3
v 0.4 0.7 0.3
v -0.4 0.9 0.4
v 0.3 0.9 0.4
v -0.4 0.9 0.3
v 0.3 0.9 0.3
v -0.5 -0.9 0.2
v 0.5 -0.9 0.2
v -0.5 -0.9 0.1
v 0.5 -0.9 0.1
v -0.5 -0.8 0.5
v 0.5 -0.8 0.5
v -0.5 -0.8 0.4
v -0.3 -0.8 0.4
v 0.4 -0.8 0.4
v 0.5 -0.8 0.4
v -0.3 -0.8 0.3
v 0.4 -0.8 0.3
v -0.4 -0.6 0.4
v -0.3 -0.6 0.4
v -0.4 -0.6 0.3
v -0.3 -0.6 0.3
v -0.3 -0.4 0.4
v -0.2 -0.4 0.4
v -0.3 -0.4 0.3
v -0.2 -0.4 0.3
v -0.2 -0.2 0.4
v -0.1 -0.2 0.4
v -0.2 -0.2 0.3
v -0.1 -0.2 0.3
v -0.1 0 0.4
v 0 0 0.4
v -0.1 0 0.3
v 0 0 0.3
v 0 0.3 0.4
v 0.1 0.3 0.4
v 0 0.3 0.3
v 0.1 0.3 0.3
v 0.1 0.5 0.4
v 0.2 0.5 0.4
v 0.1 0.5 0.3
v 0.2 0.5 0.3
v 0.2 0.7 0.4
v 0.3 0.7 0.4
v 0.2 0.7 0.3
v 0.3 0.7 0.3
v -0.5 1 0.4
v 0.5 1 0.4
v -0.5 1 0.3
v 0.5 1 0.3
v -0.5 1 0.2
v 0.5 1 0.2

# faces
f 4/2/1 2/2/1 1/2/1
f 5/3/1 3/3/1 2/3/1
f 5/2/1 2/2/1 4/2/1
f 6/3/1 3/3/1 5/3/1
f 7/2/1 4/2/1 1/2/1
f 8/2/1 4/2/1 7/2/1
f 9/2/1 4/2/1 8/2/1
f 10/1/1 5/1/1 4/1/1
f 10/2/1 4/2/1 9/2/1
f 11/1/1 5/1/1 10/1/1
f 14/2/1 13/2/1 12/2/1
f 15/2/1 13/2/1 14/2/1
f 18/2/1 17/2/1 16/2/1
f 19/2/1 17/2/1 18/2/1
f 22/2/1 21/2/1 20/2/1
f 23/2/1 21/2/1 22/2/1
f 26/2/1 25/2/1 24/2/1
f 27/2/1 25/2/1 26/2/1
f 30/2/1 29/2/1 28/2/1
f 31/2/1 29/2/1 30/2/1
f 34/2/1 33/2/1 32/2/1
f 35/2/1 33/2/1 34/2/1
f 38/2/1 37/2/1 36/2/1
f 39/2/1 37/2/1 38/2/1
f 42/2/1 41/2/1 40/2/1
f 43/2/1 41/2/1 42/2/1
f 44/2/2 45/2/2 46/2/2
f 46/2/2 45/2/2 47/2/2
f 48/2/2 49/2/2 50/2/2
f 50/2/2 49/2/2 51/2/2
f 52/2/2 53/2/2 54/2/2
f 54/2/2 53/2/2 55/2/2
f 56/2/2 57/2/2 58/2/2
f 58/2/2 57/2/2 59/2/2
f 60/2/2 61/2/2 62/2/2
f 62/2/2 61/2/2 63/2/2
f 64/2/2 65/2/2 66/2/2
f 66/2/2 65/2/2 67/2/2
f 68/2/2 69/2/2 70/2/2
f 70/2/2 69/2/2 71/2/2
f 72/2/2 73/2/2 74/2/2
f 74/2/2 73/2/2 75/2/2
f 76/2/2 77/2/2 78/2/2
f 78/2/2 77/2/2 79/2/2
f 80/2/2 81/2/2 84/2/2
f 82/3/2 83/3/2 85/3/2
f 85/3/2 83/3/2 86/3/2
f 80/2/2 84/2/2 87/2/2
f 87/2/2 84/2/2 88/2/2
f 88/2/2 84/2/2 89/2/2
f 84/1/2 85/1/2 90/1/2
f 89/2/2 84/2/2 90/2/2
f 90/1/2 85/1/2 91/1/2
f 94/2/3 93/2/3 92/2/3
f 95/2/3 93/2/3 94/2/3
f 98/2/3 97/2/3 96/2/3
f 99/2/3 97/2/3 98/2/3
f 100/2/3 98/2/3 96/2/3
f 101/2/3 98/2/3 100/2/3
f 103/2/3 102/2/3 101/2/3
f 104/2/3 102/2/3 103/2/3
f 106/2/3 105/2/3 104/2/3
f 107/2/3 105/2/3 106/2/3
f 109/2/3 108/2/3 107/2/3
f 110/2/3 108/2/3 109/2/3
f 112/2/3 111/2/3 110/2/3
f 113/2/3 111/2/3 112/2/3
f 115/2/3 114/2/3 113/2/3
f 116/2/3 114/2/3 115/2/3
f 118/2/3 117/2/3 116/2/3
f 119/2/3 117/2/3 118/2/3
f 120/2/3 97/2/3 99/2/3
f 122/2/3 120/2/3 119/2/3
f 123/2/3 122/2/3 121/2/3
f 124/2/3 97/2/3 120/2/3
f 124/2/3 122/2/3 123/2/3
f 124/2/3 120/2/3 122/2/3
f 128/1/3 126/1/3 125/1/3
f 129/1/3 126/1/3 128/1/3
f 130/1/3 128/1/3 127/1/3
f 131/1/3 126/1/3 129/1/3
f 132/1/3 126/1/3 131/1/3
f 133/1/3 131/1/3 130/1/3
f 134/1/3 126/1/3 132/1/3
f 135/1/3 126/1/3 134/1/3
f 136/1/3 134/1/3 133/1/3
f 137/1/3 126/1/3 135/1/3
f 138/1/3 126/1/3 137/1/3
f 139/1/3 137/1/3 136/1/3
f 140/1/3 126/1/3 138/1/3
f 141/1/3 126/1/3 140/1/3
f 142/1/3 140/1/3 139/1/3
f 143/1/3 126/1/3 141/1/3
f 144/1/3 126/1/3 143/1/3
f 145/1/3 143/1/3 142/1/3
f 146/1/3 126/1/3 144/1/3
f 147/1/3 126/1/3 146/1/3
f 148/1/3 130/1/3 127/1/3
f 148/1/3 133/1/3 130/1/3
f 148/1/3 146/1/3 145/1/3
f 148/1/3 136/1/3 133/1/3
f 148/1/3 145/1/3 142/1/3
f 148/1/3 139/1/3 136/1/3
f 148/1/3 142/1/3 139/1/3
f 149/1/3 146/1/3 148/1/3
f 152/3/3 151/3/3 150/3/3
f 153/3/3 151/3/3 152/3/3
f 154/2/4 155/2/4 156/2/4
f 156/2/4 155/2/4 157/2/4
f 158/1/4 159/1/4 160/1/4
f 160/1/4 159/1/4 161/1/4
f 162/3/4 163/3/4 164/3/4
f 164/3/4 163/3/4 165/3/4
f 168/2/5 167/2/5 166/2/5
f 169/2/5 167/2/5 168/2/5
f 170/2/5 168/2/5 166/2/5
f 171/2/5 168/2/5 170/2/5
f 173/3/5 171/3/5 170/3/5
f 173/3/5 172/3/5 171/3/5
f 174/3/5 172/3/5 173/3/5
f 177/1/5 176/1/5 175/1/5
f 178/1/5 176/1/5 177/1/5
f 181/2/5 180/2/5 179/2/5
f 182/2/5 180/2/5 181/2/5
f 185/2/5 184/2/5 183/2/5
f 186/2/5 184/2/5 185/2/5
f 189/2/5 188/2/5 187/2/5
f 190/2/5 188/2/5 189/2/5
f 193/2/5 192/2/5 191/2/5
f 194/2/5 192/2/5 193/2/5
f 197/2/5 196/2/5 195/2/5
f 198/2/5 196/2/5 197/2/5
f 201/2/5 200/2/5 199/2/5
f 202/2/5 200/2/5 201/2/5
f 205/2/5 204/2/5 203/2/5
f 206/2/5 204/2/5 205/2/5
f 209/2/5 208/2/5 207/2/5
f 210/2/5 208/2/5 209/2/5
f 211/3/6 212/3/6 213/3/6
f 213/3/6 212/3/6 214/3/6
f 215/2/6 216/2/6 217/2/6
f 217/2/6 216/2/6 218/2/6
f 218/2/6 216/2/6 219/2/6
f 219/2/6 216/2/6 220/2/6
f 218/2/6 219/2/6 221/2/6
f 221/2/6 219/2/6 222/2/6
f 223/2/6 224/2/6 225/2/6
f 225/2/6 224/2/6 226/2/6
f 227/2/6 228/2/6 229/2/6
f 229/2/6 228/2/6 230/2/6
f 231/2/6 232/2/6 233/2/6
f 233/2/6 232/2/6 234/2/6
f 235/2/6 236/2/6 237/2/6
f 237/2/6 236/2/6 238/2/6
f 239/2/6 240/2/6 241/2/6
f 241/2/6 240/2/6 242/2/6
f 243/2/6 244/2/6 245/2/6
f 245/2/6 244/2/6 246/2/6
f 247/2/6 248/2/6 249/2/6
f 249/2/6 248/2/6 250/2/6
f 251/2/6 252/2/6 253/2/6
f 253/2/6 252/2/6 254/2/6
f 253/1/6 254/1/6 255/1/6
f 255/1/6 254/1/6 256/1/6
