# MagicaVoxel @ Ephtracy

# group
o foundation_inner_corner

# material
mtllib house-1-foundation_inner_corner.mtl
usemtl palette

# normals
vn -1 0 0
vn 1 0 0
vn 0 0 1
vn 0 0 -1
vn 0 -1 0
vn 0 1 0

# texcoords
vt 0.970703 0.5
vt 0.974609 0.5
vt 0.978516 0.5

# verts
v -1 -1 1
v -1 -1 0.9
v -1 -1 0.8
v -1 -0.7 1
v -1 -0.7 0.9
v -1 -0.7 0.8
v -1 -0.6 0.9
v -1 -0.6 0.8
v -1 -0.3 0.9
v -1 -0.3 0.8
v -1 -0.2 1
v -1 -0.2 0.8
v -1 0.1 1
v -1 0.1 0.8
v -1 0.2 1
v -1 0.2 0.9
v -1 0.2 0.8
v -1 0.5 1
v -1 0.5 0.9
v -1 0.5 0.8
v -1 0.6 0.9
v -1 0.6 0.8
v -1 0.9 0.9
v -1 0.9 0.8
v -1 1 1
v -1 1 0.8
v -0.9 -1 0.9
v -0.9 -1 0.8
v -0.9 -0.7 0.9
v -0.9 -0.7 0.8
v -0.9 -0.6 0.9
v -0.9 -0.6 0.8
v -0.9 -0.3 0.9
v -0.9 -0.3 0.8
v -0.9 -0.2 0.9
v -0.9 -0.2 0.8
v -0.9 0.1 0.9
v -0.9 0.1 0.8
v -0.9 0.2 0.9
v -0.9 0.2 0.8
v -0.9 0.5 0.9
v -0.9 0.5 0.8
v -0.9 0.6 0.9
v -0.9 0.6 0.8
v -0.9 0.9 0.9
v -0.9 0.9 0.8
v -0.9 1 0.9
v -0.9 1 0.8
v -0.8 -1 1
v -0.8 -1 0.9
v -0.8 -0.7 1
v -0.8 -0.7 0.9
v -0.8 -0.6 1
v -0.8 -0.6 0.9
v -0.8 -0.3 1
v -0.8 -0.3 0.9
v -0.8 -0.2 1
v -0.8 -0.2 0.9
v -0.8 0.1 1
v -0.8 0.1 0.9
v -0.8 0.2 1
v -0.8 0.2 0.9
v -0.8 0.5 1
v -0.8 0.5 0.9
v -0.8 0.6 1
v -0.8 0.6 0.9
v -0.8 0.9 1
v -0.8 0.9 0.9
v -0.8 1 1
v -0.8 1 0.9
v -1 -1 1
v -1 -0.7 1
v -1 -0.2 1
v -1 0.1 1
v -1 0.2 1
v -1 0.5 1
v -1 1 1
v -0.9 -0.6 1
v -0.9 -0.3 1
v -0.9 0.6 1
v -0.9 0.9 1
v -0.8 -1 1
v -0.8 -0.7 1
v -0.8 -0.6 1
v -0.8 -0.3 1
v -0.8 -0.2 1
v -0.8 0.1 1
v -0.8 0.2 1
v -0.8 0.5 1
v -0.8 0.6 1
v -0.8 0.9 1
v -0.8 1 1
v -0.9 -1 0.9
v -0.9 -0.7 0.9
v -0.9 -0.6 0.9
v -0.9 -0.3 0.9
v -0.9 -0.2 0.9
v -0.9 0.1 0.9
v -0.9 0.2 0.9
v -0.9 0.5 0.9
v -0.9 0.6 0.9
v -0.9 0.9 0.9
v -0.9 1 0.9
v -0.8 -1 0.9
v -0.8 -0.7 0.9
v -0.8 -0.6 0.9
v -0.8 -0.3 0.9
v -0.8 -0.2 0.9
v -0.8 0.1 0.9
v -0.8 0.2 0.9
v -0.8 0.5 0.9
v -0.8 0.6 0.9
v -0.8 0.9 0.9
v -0.8 1 0.9
v -1 -1 0.8
v -1 -0.7 0.8
v -1 -0.6 0.8
v -1 -0.3 0.8
v -1 -0.2 0.8
v -1 0.1 0.8
v -1 0.2 0.8
v -1 0.5 0.8
v -1 0.6 0.8
v -1 0.9 0.8
v -1 1 0.8
v -0.9 -1 0.8
v -0.9 -0.7 0.8
v -0.9 -0.6 0.8
v -0.9 -0.3 0.8
v -0.9 -0.2 0.8
v -0.9 0.1 0.8
v -0.9 0.2 0.8
v -0.9 0.5 0.8
v -0.9 0.6 0.8
v -0.9 0.9 0.8
v -0.9 1 0.8
v -1 -1 1
v -0.8 -1 1
v -1 -1 0.9
v -0.9 -1 0.9
v -0.8 -1 0.9
v -1 -1 0.8
v -0.9 -1 0.8
v -1 1 1
v -0.8 1 1
v -0.9 1 0.9
v -0.8 1 0.9
v -1 1 0.8
v -0.9 1 0.8

# faces
f 4/3/1 2/3/1 1/3/1
f 5/1/1 3/1/1 2/1/1
f 5/3/1 2/3/1 4/3/1
f 6/1/1 3/1/1 5/1/1
f 7/2/1 5/2/1 4/2/1
f 7/2/1 6/2/1 5/2/1
f 8/2/1 6/2/1 7/2/1
f 9/2/1 7/2/1 4/2/1
f 9/3/1 8/3/1 7/3/1
f 10/3/1 8/3/1 9/3/1
f 11/2/1 9/2/1 4/2/1
f 11/2/1 10/2/1 9/2/1
f 12/2/1 10/2/1 11/2/1
f 13/3/1 12/3/1 11/3/1
f 14/3/1 12/3/1 13/3/1
f 15/2/1 14/2/1 13/2/1
f 16/2/1 14/2/1 15/2/1
f 17/2/1 14/2/1 16/2/1
f 18/1/1 16/1/1 15/1/1
f 19/3/1 17/3/1 16/3/1
f 19/1/1 16/1/1 18/1/1
f 20/3/1 17/3/1 19/3/1
f 21/2/1 19/2/1 18/2/1
f 21/2/1 20/2/1 19/2/1
f 22/2/1 20/2/1 21/2/1
f 23/2/1 21/2/1 18/2/1
f 23/1/1 22/1/1 21/1/1
f 24/1/1 22/1/1 23/1/1
f 25/2/1 23/2/1 18/2/1
f 25/2/1 24/2/1 23/2/1
f 26/2/1 24/2/1 25/2/1
f 27/1/2 28/1/2 29/1/2
f 29/1/2 28/1/2 30/1/2
f 29/2/2 30/2/2 31/2/2
f 31/2/2 30/2/2 32/2/2
f 31/3/2 32/3/2 33/3/2
f 33/3/2 32/3/2 34/3/2
f 33/2/2 34/2/2 35/2/2
f 35/2/2 34/2/2 36/2/2
f 35/3/2 36/3/2 37/3/2
f 37/3/2 36/3/2 38/3/2
f 37/2/2 38/2/2 39/2/2
f 39/2/2 38/2/2 40/2/2
f 39/3/2 40/3/2 41/3/2
f 41/3/2 40/3/2 42/3/2
f 41/2/2 42/2/2 43/2/2
f 43/2/2 42/2/2 44/2/2
f 43/1/2 44/1/2 45/1/2
f 45/1/2 44/1/2 46/1/2
f 45/2/2 46/2/2 47/2/2
f 47/2/2 46/2/2 48/2/2
f 49/3/2 50/3/2 51/3/2
f 51/3/2 50/3/2 52/3/2
f 51/2/2 52/2/2 53/2/2
f 53/2/2 52/2/2 54/2/2
f 53/3/2 54/3/2 55/3/2
f 55/3/2 54/3/2 56/3/2
f 55/2/2 56/2/2 57/2/2
f 57/2/2 56/2/2 58/2/2
f 57/3/2 58/3/2 59/3/2
f 59/3/2 58/3/2 60/3/2
f 59/2/2 60/2/2 61/2/2
f 61/2/2 60/2/2 62/2/2
f 61/1/2 62/1/2 63/1/2
f 63/1/2 62/1/2 64/1/2
f 63/2/2 64/2/2 65/2/2
f 65/2/2 64/2/2 66/2/2
f 65/3/2 66/3/2 67/3/2
f 67/3/2 66/3/2 68/3/2
f 67/2/2 68/2/2 69/2/2
f 69/2/2 68/2/2 70/2/2
f 78/2/3 73/2/3 72/2/3
f 79/2/3 73/2/3 78/2/3
f 80/2/3 77/2/3 76/2/3
f 81/2/3 77/2/3 80/2/3
f 82/3/3 72/3/3 71/3/3
f 83/2/3 78/2/3 72/2/3
f 83/3/3 72/3/3 82/3/3
f 84/3/3 79/3/3 78/3/3
f 84/2/3 78/2/3 83/2/3
f 85/2/3 73/2/3 79/2/3
f 85/3/3 79/3/3 84/3/3
f 86/3/3 74/3/3 73/3/3
f 86/2/3 73/2/3 85/2/3
f 87/2/3 75/2/3 74/2/3
f 87/3/3 74/3/3 86/3/3
f 88/1/3 76/1/3 75/1/3
f 88/2/3 75/2/3 87/2/3
f 89/2/3 80/2/3 76/2/3
f 89/1/3 76/1/3 88/1/3
f 90/3/3 81/3/3 80/3/3
f 90/2/3 80/2/3 89/2/3
f 91/2/3 77/2/3 81/2/3
f 91/3/3 81/3/3 90/3/3
f 92/2/3 77/2/3 91/2/3
f 93/3/4 94/3/4 104/3/4
f 94/2/4 95/2/4 105/2/4
f 104/3/4 94/3/4 105/3/4
f 95/3/4 96/3/4 106/3/4
f 105/2/4 95/2/4 106/2/4
f 96/2/4 97/2/4 107/2/4
f 106/3/4 96/3/4 107/3/4
f 97/3/4 98/3/4 108/3/4
f 107/2/4 97/2/4 108/2/4
f 98/2/4 99/2/4 109/2/4
f 108/3/4 98/3/4 109/3/4
f 99/1/4 100/1/4 110/1/4
f 109/2/4 99/2/4 110/2/4
f 100/2/4 101/2/4 111/2/4
f 110/1/4 100/1/4 111/1/4
f 101/3/4 102/3/4 112/3/4
f 111/2/4 101/2/4 112/2/4
f 102/2/4 103/2/4 113/2/4
f 112/3/4 102/3/4 113/3/4
f 113/2/4 103/2/4 114/2/4
f 115/1/4 116/1/4 126/1/4
f 116/2/4 117/2/4 127/2/4
f 126/1/4 116/1/4 127/1/4
f 117/3/4 118/3/4 128/3/4
f 127/2/4 117/2/4 128/2/4
f 118/2/4 119/2/4 129/2/4
f 128/3/4 118/3/4 129/3/4
f 119/3/4 120/3/4 130/3/4
f 129/2/4 119/2/4 130/2/4
f 120/2/4 121/2/4 131/2/4
f 130/3/4 120/3/4 131/3/4
f 121/3/4 122/3/4 132/3/4
f 131/2/4 121/2/4 132/2/4
f 122/2/4 123/2/4 133/2/4
f 132/3/4 122/3/4 133/3/4
f 123/1/4 124/1/4 134/1/4
f 133/2/4 123/2/4 134/2/4
f 124/2/4 125/2/4 135/2/4
f 134/1/4 124/1/4 135/1/4
f 135/2/4 125/2/4 136/2/4
f 139/3/5 138/3/5 137/3/5
f 140/3/5 138/3/5 139/3/5
f 141/3/5 138/3/5 140/3/5
f 142/1/5 140/1/5 139/1/5
f 143/1/5 140/1/5 142/1/5
f 144/2/6 145/2/6 146/2/6
f 146/2/6 145/2/6 147/2/6
f 144/2/6 146/2/6 148/2/6
f 148/2/6 146/2/6 149/2/6
