# MagicaVoxel @ Ephtracy

# group
o roof_flat_outer_corner

# material
mtllib house-4-roof_flat_outer_corner.mtl
usemtl palette

# normals
vn -1 0 0
vn 1 0 0
vn 0 0 1
vn 0 0 -1
vn 0 -1 0
vn 0 1 0

# texcoords
vt 0.908203 0.5
vt 0.912109 0.5
vt 0.970703 0.5
vt 0.974609 0.5

# verts
v -1 -1 1
v -1 -1 0.7
v -1 -1 0.6
v -1 -1 0.4
v -1 -1 0.2
v -1 -1 0
v -1 -1 -0.2
v -1 -1 -0.4
v -1 -1 -0.6
v -1 -1 -0.8
v -1 -1 -1
v -1 -0.9 0.7
v -1 -0.9 0.6
v -1 -0.9 0.4
v -1 -0.9 0.2
v -1 -0.9 0
v -1 -0.9 -0.2
v -1 -0.9 -0.4
v -1 -0.9 -0.6
v -1 -0.9 -0.8
v -1 -0.9 -1
v -1 -0.8 1
v -1 -0.8 0.7
v 0.7 -0.9 0.7
v 0.7 -0.9 0.6
v 0.7 -0.9 0.4
v 0.7 -0.9 0.2
v 0.7 -0.9 0.1
v 0.7 -0.9 0
v 0.7 -0.9 -0.2
v 0.7 -0.9 -0.3
v 0.7 -0.9 -0.4
v 0.7 -0.9 -0.6
v 0.7 -0.9 -0.8
v 0.7 -0.9 -0.9
v 0.7 -0.9 -1
v 0.7 -0.8 0.7
v 0.7 -0.8 0.6
v 0.7 -0.8 0.1
v 0.7 -0.8 0
v 0.7 -0.8 -0.3
v 0.7 -0.8 -0.4
v 0.7 -0.8 -0.8
v 0.7 -0.8 -0.9
v 0.7 -0.8 -1
v 1 -1 1
v 1 -1 0.7
v 1 -1 0.6
v 1 -1 0.1
v 1 -1 0
v 1 -1 -0.3
v 1 -1 -0.4
v 1 -1 -0.8
v 1 -1 -0.9
v 1 -1 -1
v 1 -0.8 1
v 1 -0.8 0.7
v 1 -0.8 0.6
v 1 -0.8 0.1
v 1 -0.8 0
v 1 -0.8 -0.3
v 1 -0.8 -0.4
v 1 -0.8 -0.8
v 1 -0.8 -0.9
v 1 -0.8 -1
v -1 -1 1
v -1 -0.8 1
v -0.7 -1 1
v -0.7 -0.8 1
v -0.6 -1 1
v -0.6 -0.8 1
v -0.1 -1 1
v -0.1 -0.8 1
v 0 -1 1
v 0 -0.8 1
v 0.4 -1 1
v 0.4 -0.8 1
v 0.5 -1 1
v 0.5 -0.8 1
v 1 -1 1
v 1 -0.8 1
v -1 -0.9 0.7
v -1 -0.8 0.7
v -0.7 -0.9 0.7
v -0.7 -0.8 0.7
v -0.6 -0.9 0.7
v -0.6 -0.8 0.7
v -0.1 -0.9 0.7
v -0.1 -0.8 0.7
v 0 -0.9 0.7
v 0 -0.8 0.7
v 0.4 -0.9 0.7
v 0.4 -0.8 0.7
v 0.5 -0.9 0.7
v 0.5 -0.8 0.7
v 0.7 -0.9 0.7
v 0.7 -0.8 0.7
v -1 -1 -1
v -1 -0.9 -1
v 0.7 -1 -1
v 0.7 -0.9 -1
v 0.7 -0.8 -1
v 1 -1 -1
v 1 -0.8 -1
v -1 -1 1
v -0.7 -1 1
v -0.6 -1 1
v -0.1 -1 1
v 0 -1 1
v 0.4 -1 1
v 0.5 -1 1
v 1 -1 1
v -1 -1 0.7
v -0.7 -1 0.7
v -0.6 -1 0.7
v -0.1 -1 0.7
v 0 -1 0.7
v 0.4 -1 0.7
v 0.5 -1 0.7
v 0.7 -1 0.7
v 1 -1 0.7
v -1 -1 0.6
v 0.7 -1 0.6
v 1 -1 0.6
v -1 -1 0.4
v 0.7 -1 0.4
v -1 -1 0.2
v 0.7 -1 0.2
v 0.7 -1 0.1
v 1 -1 0.1
v -1 -1 0
v 0.7 -1 0
v 1 -1 0
v -1 -1 -0.2
v 0.7 -1 -0.2
v 0.7 -1 -0.3
v 1 -1 -0.3
v -1 -1 -0.4
v 0.7 -1 -0.4
v 1 -1 -0.4
v -1 -1 -0.6
v 0.7 -1 -0.6
v -1 -1 -0.8
v 0.7 -1 -0.8
v 1 -1 -0.8
v 0.7 -1 -0.9
v 1 -1 -0.9
v -1 -1 -1
v 0.7 -1 -1
v 1 -1 -1
v -1 -0.9 0.7
v -0.7 -0.9 0.7
v -0.6 -0.9 0.7
v -0.1 -0.9 0.7
v 0 -0.9 0.7
v 0.4 -0.9 0.7
v 0.5 -0.9 0.7
v 0.7 -0.9 0.7
v -1 -0.9 0.6
v 0.7 -0.9 0.6
v -1 -0.9 0.4
v 0.7 -0.9 0.4
v -1 -0.9 0.2
v 0.7 -0.9 0.2
v 0.7 -0.9 0.1
v -1 -0.9 0
v 0.7 -0.9 0
v -1 -0.9 -0.2
v 0.7 -0.9 -0.2
v 0.7 -0.9 -0.3
v -1 -0.9 -0.4
v 0.7 -0.9 -0.4
v -1 -0.9 -0.6
v 0.7 -0.9 -0.6
v -1 -0.9 -0.8
v 0.7 -0.9 -0.8
v 0.7 -0.9 -0.9
v -1 -0.9 -1
v 0.7 -0.9 -1
v -1 -0.8 1
v -0.7 -0.8 1
v -0.6 -0.8 1
v -0.1 -0.8 1
v 0 -0.8 1
v 0.4 -0.8 1
v 0.5 -0.8 1
v 1 -0.8 1
v -1 -0.8 0.7
v -0.7 -0.8 0.7
v -0.6 -0.8 0.7
v -0.1 -0.8 0.7
v 0 -0.8 0.7
v 0.4 -0.8 0.7
v 0.5 -0.8 0.7
v 0.7 -0.8 0.7
v 1 -0.8 0.7
v 0.7 -0.8 0.6
v 1 -0.8 0.6
v 0.7 -0.8 0.1
v 1 -0.8 0.1
v 0.7 -0.8 0
v 1 -0.8 0
v 0.7 -0.8 -0.3
v 1 -0.8 -0.3
v 0.7 -0.8 -0.4
v 1 -0.8 -0.4
v 0.7 -0.8 -0.8
v 1 -0.8 -0.8
v 0.7 -0.8 -0.9
v 1 -0.8 -0.9
v 0.7 -0.8 -1
v 1 -0.8 -1

# faces
f 12/3/1 2/3/1 1/3/1
f 12/2/1 3/2/1 2/2/1
f 13/1/1 4/1/1 3/1/1
f 13/2/1 3/2/1 12/2/1
f 14/2/1 5/2/1 4/2/1
f 14/1/1 4/1/1 13/1/1
f 15/1/1 6/1/1 5/1/1
f 15/2/1 5/2/1 14/2/1
f 16/2/1 7/2/1 6/2/1
f 16/1/1 6/1/1 15/1/1
f 17/1/1 8/1/1 7/1/1
f 17/2/1 7/2/1 16/2/1
f 18/2/1 9/2/1 8/2/1
f 18/1/1 8/1/1 17/1/1
f 19/1/1 10/1/1 9/1/1
f 19/2/1 9/2/1 18/2/1
f 20/2/1 11/2/1 10/2/1
f 20/1/1 10/1/1 19/1/1
f 21/2/1 11/2/1 20/2/1
f 22/3/1 12/3/1 1/3/1
f 23/3/1 12/3/1 22/3/1
f 37/4/1 25/4/1 24/4/1
f 38/3/1 26/3/1 25/3/1
f 38/4/1 25/4/1 37/4/1
f 38/3/1 27/3/1 26/3/1
f 38/3/1 28/3/1 27/3/1
f 39/4/1 29/4/1 28/4/1
f 39/3/1 28/3/1 38/3/1
f 40/3/1 30/3/1 29/3/1
f 40/4/1 29/4/1 39/4/1
f 40/3/1 31/3/1 30/3/1
f 41/4/1 32/4/1 31/4/1
f 41/3/1 31/3/1 40/3/1
f 42/3/1 34/3/1 33/3/1
f 42/4/1 32/4/1 41/4/1
f 42/3/1 33/3/1 32/3/1
f 43/4/1 35/4/1 34/4/1
f 43/3/1 34/3/1 42/3/1
f 44/3/1 36/3/1 35/3/1
f 44/4/1 35/4/1 43/4/1
f 45/3/1 36/3/1 44/3/1
f 46/3/2 47/3/2 56/3/2
f 47/4/2 48/4/2 57/4/2
f 56/3/2 47/3/2 57/3/2
f 48/3/2 49/3/2 58/3/2
f 57/4/2 48/4/2 58/4/2
f 49/4/2 50/4/2 59/4/2
f 58/3/2 49/3/2 59/3/2
f 50/3/2 51/3/2 60/3/2
f 59/4/2 50/4/2 60/4/2
f 51/4/2 52/4/2 61/4/2
f 60/3/2 51/3/2 61/3/2
f 52/3/2 53/3/2 62/3/2
f 61/4/2 52/4/2 62/4/2
f 53/4/2 54/4/2 63/4/2
f 62/3/2 53/3/2 63/3/2
f 54/3/2 55/3/2 64/3/2
f 63/4/2 54/4/2 64/4/2
f 64/3/2 55/3/2 65/3/2
f 68/3/3 67/3/3 66/3/3
f 69/3/3 67/3/3 68/3/3
f 70/4/3 69/4/3 68/4/3
f 71/4/3 69/4/3 70/4/3
f 72/3/3 71/3/3 70/3/3
f 73/3/3 71/3/3 72/3/3
f 74/4/3 73/4/3 72/4/3
f 75/4/3 73/4/3 74/4/3
f 76/3/3 75/3/3 74/3/3
f 77/3/3 75/3/3 76/3/3
f 78/4/3 77/4/3 76/4/3
f 79/4/3 77/4/3 78/4/3
f 80/3/3 79/3/3 78/3/3
f 81/3/3 79/3/3 80/3/3
f 82/3/4 83/3/4 84/3/4
f 84/3/4 83/3/4 85/3/4
f 84/4/4 85/4/4 86/4/4
f 86/4/4 85/4/4 87/4/4
f 86/3/4 87/3/4 88/3/4
f 88/3/4 87/3/4 89/3/4
f 88/4/4 89/4/4 90/4/4
f 90/4/4 89/4/4 91/4/4
f 90/3/4 91/3/4 92/3/4
f 92/3/4 91/3/4 93/3/4
f 92/4/4 93/4/4 94/4/4
f 94/4/4 93/4/4 95/4/4
f 94/3/4 95/3/4 96/3/4
f 96/3/4 95/3/4 97/3/4
f 98/2/4 99/2/4 100/2/4
f 100/2/4 99/2/4 101/2/4
f 100/3/4 101/3/4 103/3/4
f 101/3/4 102/3/4 103/3/4
f 103/3/4 102/3/4 104/3/4
f 113/3/5 106/3/5 105/3/5
f 114/4/5 107/4/5 106/4/5
f 114/3/5 106/3/5 113/3/5
f 115/3/5 108/3/5 107/3/5
f 115/4/5 107/4/5 114/4/5
f 116/4/5 109/4/5 108/4/5
f 116/3/5 108/3/5 115/3/5
f 117/3/5 110/3/5 109/3/5
f 117/4/5 109/4/5 116/4/5
f 118/4/5 111/4/5 110/4/5
f 118/3/5 110/3/5 117/3/5
f 119/3/5 112/3/5 111/3/5
f 119/4/5 111/4/5 118/4/5
f 120/3/5 112/3/5 119/3/5
f 121/3/5 112/3/5 120/3/5
f 122/2/5 118/2/5 117/2/5
f 122/2/5 114/2/5 113/2/5
f 122/2/5 115/2/5 114/2/5
f 122/2/5 120/2/5 119/2/5
f 122/2/5 119/2/5 118/2/5
f 122/2/5 117/2/5 116/2/5
f 122/2/5 116/2/5 115/2/5
f 123/4/5 121/4/5 120/4/5
f 123/2/5 120/2/5 122/2/5
f 124/4/5 121/4/5 123/4/5
f 125/1/5 123/1/5 122/1/5
f 126/3/5 124/3/5 123/3/5
f 126/1/5 123/1/5 125/1/5
f 127/2/5 126/2/5 125/2/5
f 128/3/5 124/3/5 126/3/5
f 128/2/5 126/2/5 127/2/5
f 129/1/5 128/1/5 127/1/5
f 129/3/5 124/3/5 128/3/5
f 130/3/5 124/3/5 129/3/5
f 131/1/5 129/1/5 127/1/5
f 132/4/5 130/4/5 129/4/5
f 132/1/5 129/1/5 131/1/5
f 133/4/5 130/4/5 132/4/5
f 134/2/5 132/2/5 131/2/5
f 135/3/5 133/3/5 132/3/5
f 135/2/5 132/2/5 134/2/5
f 136/1/5 135/1/5 134/1/5
f 136/3/5 133/3/5 135/3/5
f 137/3/5 133/3/5 136/3/5
f 138/1/5 136/1/5 134/1/5
f 139/4/5 137/4/5 136/4/5
f 139/1/5 136/1/5 138/1/5
f 140/4/5 137/4/5 139/4/5
f 141/2/5 139/2/5 138/2/5
f 142/3/5 140/3/5 139/3/5
f 142/2/5 139/2/5 141/2/5
f 143/1/5 142/1/5 141/1/5
f 144/3/5 140/3/5 142/3/5
f 144/1/5 142/1/5 143/1/5
f 145/3/5 140/3/5 144/3/5
f 146/2/5 144/2/5 143/2/5
f 146/4/5 145/4/5 144/4/5
f 147/4/5 145/4/5 146/4/5
f 148/2/5 146/2/5 143/2/5
f 149/3/5 147/3/5 146/3/5
f 149/2/5 146/2/5 148/2/5
f 150/3/5 147/3/5 149/3/5
f 151/2/6 152/2/6 159/2/6
f 157/2/6 158/2/6 159/2/6
f 156/2/6 157/2/6 159/2/6
f 155/2/6 156/2/6 159/2/6
f 154/2/6 155/2/6 159/2/6
f 153/2/6 154/2/6 159/2/6
f 152/2/6 153/2/6 159/2/6
f 159/2/6 158/2/6 160/2/6
f 159/1/6 160/1/6 161/1/6
f 161/1/6 160/1/6 162/1/6
f 161/2/6 162/2/6 163/2/6
f 163/2/6 162/2/6 164/2/6
f 163/1/6 164/1/6 165/1/6
f 163/1/6 165/1/6 166/1/6
f 166/1/6 165/1/6 167/1/6
f 166/2/6 167/2/6 168/2/6
f 168/2/6 167/2/6 169/2/6
f 168/1/6 169/1/6 170/1/6
f 168/1/6 170/1/6 171/1/6
f 171/1/6 170/1/6 172/1/6
f 171/2/6 172/2/6 173/2/6
f 173/2/6 172/2/6 174/2/6
f 173/1/6 174/1/6 175/1/6
f 175/1/6 174/1/6 176/1/6
f 175/2/6 176/2/6 177/2/6
f 175/2/6 177/2/6 178/2/6
f 178/2/6 177/2/6 179/2/6
f 180/3/6 181/3/6 188/3/6
f 181/4/6 182/4/6 189/4/6
f 188/3/6 181/3/6 189/3/6
f 182/3/6 183/3/6 190/3/6
f 189/4/6 182/4/6 190/4/6
f 183/4/6 184/4/6 191/4/6
f 190/3/6 183/3/6 191/3/6
f 184/3/6 185/3/6 192/3/6
f 191/4/6 184/4/6 192/4/6
f 185/4/6 186/4/6 193/4/6
f 192/3/6 185/3/6 193/3/6
f 186/3/6 187/3/6 194/3/6
f 193/4/6 186/4/6 194/4/6
f 194/3/6 187/3/6 195/3/6
f 195/3/6 187/3/6 196/3/6
f 195/4/6 196/4/6 197/4/6
f 197/4/6 196/4/6 198/4/6
f 197/3/6 198/3/6 199/3/6
f 199/3/6 198/3/6 200/3/6
f 199/4/6 200/4/6 201/4/6
f 201/4/6 200/4/6 202/4/6
f 201/3/6 202/3/6 203/3/6
f 203/3/6 202/3/6 204/3/6
f 203/4/6 204/4/6 205/4/6
f 205/4/6 204/4/6 206/4/6
f 205/3/6 206/3/6 207/3/6
f 207/3/6 206/3/6 208/3/6
f 207/4/6 208/4/6 209/4/6
f 209/4/6 208/4/6 210/4/6
f 209/3/6 210/3/6 211/3/6
f 211/3/6 210/3/6 212/3/6
