# MagicaVoxel @ Ephtracy

# group
o foundation_outer_corner

# material
mtllib house-0-foundation_outer_corner.mtl
usemtl palette

# normals
vn -1 0 0
vn 1 0 0
vn 0 0 1
vn 0 0 -1
vn 0 -1 0
vn 0 1 0

# texcoords
vt 0.912109 0.5
vt 0.970703 0.5
vt 0.974609 0.5
vt 0.978516 0.5

# verts
v -1 -1 0.8
v -1 -1 0.7
v -1 -1 0.6
v -1 -0.7 0.7
v -1 -0.7 0.6
v -1 -0.6 0.7
v -1 -0.6 0.6
v -1 -0.3 0.7
v -1 -0.3 0.6
v -1 0.2 0.7
v -1 0.2 0.6
v -1 0.5 0.7
v -1 0.5 0.6
v -1 0.6 0.7
v -1 0.6 0.6
v -1 0.9 0.7
v -1 0.9 0.6
v -1 1 0.8
v -1 1 0.7
v -1 1 0.6
v 0.3 -1 0.8
v 0.3 -1 0.7
v 0.3 -0.7 0.7
v 0.3 -0.6 0.7
v 0.3 -0.3 0.7
v 0.3 -0.2 0.7
v 0.3 0.1 0.7
v 0.3 0.2 0.7
v 0.3 0.5 0.7
v 0.3 0.6 0.7
v 0.3 0.9 0.7
v 0.3 1 0.8
v 0.3 1 0.7
v 0.6 -1 0.6
v 0.6 -1 0.5
v 0.6 -1 0.1
v 0.6 -1 0
v 0.6 -1 -0.5
v 0.6 -1 -0.6
v 0.6 -1 -1
v 0.6 -0.7 0.6
v 0.6 -0.7 0.5
v 0.6 -0.7 0.1
v 0.6 -0.7 0
v 0.6 -0.7 -0.5
v 0.6 -0.7 -0.6
v 0.6 -0.7 -1
v 0.6 -0.6 0.6
v 0.6 -0.6 0.3
v 0.6 -0.6 0.2
v 0.6 -0.6 -0.3
v 0.6 -0.6 -0.4
v 0.6 -0.6 -0.9
v 0.6 -0.3 0.6
v 0.6 -0.3 0.3
v 0.6 -0.3 0.2
v 0.6 -0.3 -0.3
v 0.6 -0.3 -0.4
v 0.6 -0.3 -0.9
v 0.6 -0.2 0.6
v 0.6 -0.2 0.5
v 0.6 -0.2 0.4
v 0.6 -0.2 -0.1
v 0.6 -0.2 -0.2
v 0.6 -0.2 -0.7
v 0.6 -0.2 -0.8
v 0.6 -0.2 -1
v 0.6 0.1 0.6
v 0.6 0.1 0.5
v 0.6 0.1 0.4
v 0.6 0.1 -0.1
v 0.6 0.1 -0.2
v 0.6 0.1 -0.7
v 0.6 0.1 -0.8
v 0.6 0.1 -1
v 0.6 0.2 0.6
v 0.6 0.2 0.5
v 0.6 0.2 0.1
v 0.6 0.2 0
v 0.6 0.2 -0.5
v 0.6 0.2 -0.6
v 0.6 0.2 -1
v 0.6 0.5 0.6
v 0.6 0.5 0.5
v 0.6 0.5 0.1
v 0.6 0.5 0
v 0.6 0.5 -0.5
v 0.6 0.5 -0.6
v 0.6 0.5 -1
v 0.6 0.6 0.6
v 0.6 0.6 0.3
v 0.6 0.6 0.2
v 0.6 0.6 -0.3
v 0.6 0.6 -0.4
v 0.6 0.6 -0.9
v 0.6 0.9 0.6
v 0.6 0.9 0.3
v 0.6 0.9 0.2
v 0.6 0.9 -0.3
v 0.6 0.9 -0.4
v 0.6 0.9 -0.9
v 0.6 1 0.6
v 0.6 1 -1
v -0.9 -1 0.8
v -0.9 -1 0.7
v -0.9 -0.7 0.7
v -0.9 -0.6 0.7
v -0.9 -0.3 0.7
v -0.9 -0.2 0.7
v -0.9 0.1 0.7
v -0.9 0.2 0.7
v -0.9 0.5 0.7
v -0.9 0.6 0.7
v -0.9 0.9 0.7
v -0.9 1 0.8
v -0.9 1 0.7
v 0.5 -1 0.8
v 0.5 -1 0.7
v 0.5 -0.7 0.7
v 0.5 -0.2 0.7
v 0.5 0.1 0.7
v 0.5 0.2 0.7
v 0.5 0.5 0.7
v 0.5 1 0.8
v 0.5 1 0.7
v 0.7 -1 0.7
v 0.7 -1 0.6
v 0.7 -1 0.5
v 0.7 -1 0.3
v 0.7 -1 0.1
v 0.7 -1 0
v 0.7 -1 -0.5
v 0.7 -1 -0.6
v 0.7 -1 -0.9
v 0.7 -0.7 0.7
v 0.7 -0.7 0.6
v 0.7 -0.7 0.3
v 0.7 -0.7 0.1
v 0.7 -0.7 0
v 0.7 -0.7 -0.5
v 0.7 -0.7 -0.6
v 0.7 -0.7 -0.9
v 0.7 -0.6 0.7
v 0.7 -0.6 0.5
v 0.7 -0.6 0.2
v 0.7 -0.6 -0.3
v 0.7 -0.6 -0.4
v 0.7 -0.6 -0.9
v 0.7 -0.3 0.7
v 0.7 -0.3 0.5
v 0.7 -0.3 0.2
v 0.7 -0.3 -0.3
v 0.7 -0.3 -0.4
v 0.7 -0.3 -0.9
v 0.7 -0.2 0.7
v 0.7 -0.2 0.5
v 0.7 -0.2 0.3
v 0.7 -0.2 -0.1
v 0.7 -0.2 -0.2
v 0.7 -0.2 -0.7
v 0.7 -0.2 -0.8
v 0.7 -0.2 -0.9
v 0.7 0.1 0.7
v 0.7 0.1 0.5
v 0.7 0.1 0.3
v 0.7 0.1 -0.1
v 0.7 0.1 -0.2
v 0.7 0.1 -0.7
v 0.7 0.1 -0.8
v 0.7 0.1 -0.9
v 0.7 0.2 0.7
v 0.7 0.2 0.6
v 0.7 0.2 0.3
v 0.7 0.2 0.1
v 0.7 0.2 0
v 0.7 0.2 -0.5
v 0.7 0.2 -0.6
v 0.7 0.2 -0.9
v 0.7 0.5 0.7
v 0.7 0.5 0.6
v 0.7 0.5 0.3
v 0.7 0.5 0.1
v 0.7 0.5 0
v 0.7 0.5 -0.5
v 0.7 0.5 -0.6
v 0.7 0.5 -0.9
v 0.7 0.6 0.7
v 0.7 0.6 0.5
v 0.7 0.6 0.2
v 0.7 0.6 -0.3
v 0.7 0.6 -0.4
v 0.7 0.6 -0.9
v 0.7 0.9 0.7
v 0.7 0.9 0.5
v 0.7 0.9 0.2
v 0.7 0.9 -0.3
v 0.7 0.9 -0.4
v 0.7 0.9 -0.9
v 0.7 1 0.7
v 0.7 1 0.5
v 0.7 1 0.3
v 0.7 1 -0.9
v 0.8 -1 0.5
v 0.8 -1 0.3
v 0.8 -1 -0.9
v 0.8 -1 -1
v 0.8 1 0.5
v 0.8 1 0.3
v 0.8 1 -0.9
v 0.8 1 -1
v -1 -1 0.8
v -1 1 0.8
v -0.9 -1 0.8
v -0.9 1 0.8
v 0.3 -1 0.8
v 0.3 1 0.8
v 0.5 -1 0.8
v 0.5 1 0.8
v -0.9 -1 0.7
v -0.9 -0.7 0.7
v -0.9 -0.6 0.7
v -0.9 -0.3 0.7
v -0.9 -0.2 0.7
v -0.9 0.1 0.7
v -0.9 0.2 0.7
v -0.9 0.5 0.7
v -0.9 0.6 0.7
v -0.9 0.9 0.7
v -0.9 1 0.7
v -0.8 -0.6 0.7
v -0.8 -0.3 0.7
v -0.7 -0.6 0.7
v -0.7 -0.3 0.7
v -0.7 0.6 0.7
v -0.7 0.9 0.7
v -0.6 0.6 0.7
v -0.6 0.9 0.7
v -0.5 -1 0.7
v -0.5 -0.7 0.7
v -0.5 0.2 0.7
v -0.5 0.5 0.7
v -0.4 -1 0.7
v -0.4 -0.7 0.7
v -0.4 0.2 0.7
v -0.4 0.5 0.7
v -0.3 -0.2 0.7
v -0.3 0.1 0.7
v -0.2 -0.2 0.7
v -0.2 0.1 0.7
v -0.1 -0.6 0.7
v -0.1 -0.3 0.7
v -0.1 0.6 0.7
v -0.1 0.9 0.7
v 0 -0.6 0.7
v 0 -0.3 0.7
v 0 0.6 0.7
v 0 0.9 0.7
v 0.1 -1 0.7
v 0.1 -0.7 0.7
v 0.1 0.2 0.7
v 0.1 0.5 0.7
v 0.2 -1 0.7
v 0.2 -0.7 0.7
v 0.2 0.2 0.7
v 0.2 0.5 0.7
v 0.3 -1 0.7
v 0.3 -0.7 0.7
v 0.3 -0.6 0.7
v 0.3 -0.3 0.7
v 0.3 -0.2 0.7
v 0.3 0.1 0.7
v 0.3 0.2 0.7
v 0.3 0.5 0.7
v 0.3 0.6 0.7
v 0.3 0.9 0.7
v 0.3 1 0.7
v 0.5 -1 0.7
v 0.5 -0.7 0.7
v 0.5 -0.2 0.7
v 0.5 0.1 0.7
v 0.5 0.2 0.7
v 0.5 0.5 0.7
v 0.5 1 0.7
v 0.6 -0.6 0.7
v 0.6 -0.3 0.7
v 0.6 0.6 0.7
v 0.6 0.9 0.7
v 0.7 -1 0.7
v 0.7 -0.7 0.7
v 0.7 -0.6 0.7
v 0.7 -0.3 0.7
v 0.7 -0.2 0.7
v 0.7 0.1 0.7
v 0.7 0.2 0.7
v 0.7 0.5 0.7
v 0.7 0.6 0.7
v 0.7 0.9 0.7
v 0.7 1 0.7
v 0.7 -1 0.5
v 0.7 -0.6 0.5
v 0.7 -0.3 0.5
v 0.7 -0.2 0.5
v 0.7 0.1 0.5
v 0.7 0.6 0.5
v 0.7 0.9 0.5
v 0.7 1 0.5
v 0.8 -1 0.5
v 0.8 1 0.5
v 0.7 -1 -0.9
v 0.7 -0.7 -0.9
v 0.7 -0.6 -0.9
v 0.7 -0.3 -0.9
v 0.7 -0.2 -0.9
v 0.7 0.1 -0.9
v 0.7 0.2 -0.9
v 0.7 0.5 -0.9
v 0.7 0.6 -0.9
v 0.7 0.9 -0.9
v 0.7 1 -0.9
v 0.8 -1 -0.9
v 0.8 1 -0.9
v -1 -1 0.6
v -1 -0.7 0.6
v -1 -0.6 0.6
v -1 -0.3 0.6
v -1 0.2 0.6
v -1 0.5 0.6
v -1 0.6 0.6
v -1 0.9 0.6
v -1 1 0.6
v -0.9 -0.2 0.6
v -0.9 0.1 0.6
v -0.8 -0.6 0.6
v -0.8 -0.3 0.6
v -0.7 -0.6 0.6
v -0.7 -0.3 0.6
v -0.7 0.6 0.6
v -0.7 0.9 0.6
v -0.6 0.6 0.6
v -0.6 0.9 0.6
v -0.5 -1 0.6
v -0.5 -0.7 0.6
v -0.5 0.2 0.6
v -0.5 0.5 0.6
v -0.4 -1 0.6
v -0.4 -0.7 0.6
v -0.4 0.2 0.6
v -0.4 0.5 0.6
v -0.3 -0.2 0.6
v -0.3 0.1 0.6
v -0.2 -0.2 0.6
v -0.2 0.1 0.6
v -0.1 -0.6 0.6
v -0.1 -0.3 0.6
v -0.1 0.6 0.6
v -0.1 0.9 0.6
v 0 -0.6 0.6
v 0 -0.3 0.6
v 0 0.6 0.6
v 0 0.9 0.6
v 0.1 -1 0.6
v 0.1 -0.7 0.6
v 0.1 0.2 0.6
v 0.1 0.5 0.6
v 0.2 -1 0.6
v 0.2 -0.7 0.6
v 0.2 0.2 0.6
v 0.2 0.5 0.6
v 0.3 -0.2 0.6
v 0.3 0.1 0.6
v 0.4 -0.2 0.6
v 0.4 0.1 0.6
v 0.5 -0.6 0.6
v 0.5 -0.3 0.6
v 0.5 0.6 0.6
v 0.5 0.9 0.6
v 0.6 -1 0.6
v 0.6 -0.7 0.6
v 0.6 -0.6 0.6
v 0.6 -0.3 0.6
v 0.6 -0.2 0.6
v 0.6 0.1 0.6
v 0.6 0.2 0.6
v 0.6 0.5 0.6
v 0.6 0.6 0.6
v 0.6 0.9 0.6
v 0.6 1 0.6
v 0.7 -1 0.3
v 0.7 -0.7 0.3
v 0.7 -0.2 0.3
v 0.7 0.1 0.3
v 0.7 0.2 0.3
v 0.7 0.5 0.3
v 0.7 1 0.3
v 0.8 -1 0.3
v 0.8 1 0.3
v 0.6 -1 -1
v 0.6 -0.7 -1
v 0.6 -0.2 -1
v 0.6 0.1 -1
v 0.6 0.2 -1
v 0.6 0.5 -1
v 0.6 1 -1
v 0.7 -1 -1
v 0.7 -0.7 -1
v 0.7 -0.2 -1
v 0.7 0.1 -1
v 0.7 0.2 -1
v 0.7 0.5 -1
v 0.7 1 -1
v 0.8 -1 -1
v 0.8 1 -1
v -1 -1 0.8
v -0.9 -1 0.8
v 0.3 -1 0.8
v 0.5 -1 0.8
v -1 -1 0.7
v -0.9 -1 0.7
v -0.5 -1 0.7
v -0.4 -1 0.7
v 0.1 -1 0.7
v 0.2 -1 0.7
v 0.3 -1 0.7
v 0.5 -1 0.7
v 0.7 -1 0.7
v -1 -1 0.6
v -0.5 -1 0.6
v -0.4 -1 0.6
v 0.1 -1 0.6
v 0.2 -1 0.6
v 0.6 -1 0.6
v 0.7 -1 0.6
v 0.6 -1 0.5
v 0.7 -1 0.5
v 0.8 -1 0.5
v 0.7 -1 0.3
v 0.8 -1 0.3
v 0.6 -1 0.1
v 0.7 -1 0.1
v 0.6 -1 0
v 0.7 -1 0
v 0.6 -1 -0.5
v 0.7 -1 -0.5
v 0.6 -1 -0.6
v 0.7 -1 -0.6
v 0.7 -1 -0.9
v 0.8 -1 -0.9
v 0.6 -1 -1
v 0.7 -1 -1
v 0.8 -1 -1
v -1 1 0.8
v -0.9 1 0.8
v 0.3 1 0.8
v 0.5 1 0.8
v -1 1 0.7
v -0.9 1 0.7
v 0.3 1 0.7
v 0.5 1 0.7
v 0.7 1 0.7
v -1 1 0.6
v 0.6 1 0.6
v 0.7 1 0.5
v 0.8 1 0.5
v 0.7 1 0.3
v 0.8 1 0.3
v 0.7 1 -0.9
v 0.8 1 -0.9
v 0.6 1 -1
v 0.7 1 -1
v 0.8 1 -1

# faces
f 4/1/1 2/1/1 1/1/1
f 4/4/1 3/4/1 2/4/1
f 5/4/1 3/4/1 4/4/1
f 6/1/1 4/1/1 1/1/1
f 6/3/1 5/3/1 4/3/1
f 7/3/1 5/3/1 6/3/1
f 8/1/1 6/1/1 1/1/1
f 8/4/1 7/4/1 6/4/1
f 9/4/1 7/4/1 8/4/1
f 10/1/1 8/1/1 1/1/1
f 10/3/1 9/3/1 8/3/1
f 11/3/1 9/3/1 10/3/1
f 12/1/1 10/1/1 1/1/1
f 12/2/1 11/2/1 10/2/1
f 13/2/1 11/2/1 12/2/1
f 14/1/1 12/1/1 1/1/1
f 14/3/1 13/3/1 12/3/1
f 15/3/1 13/3/1 14/3/1
f 16/1/1 14/1/1 1/1/1
f 16/4/1 15/4/1 14/4/1
f 17/4/1 15/4/1 16/4/1
f 18/1/1 16/1/1 1/1/1
f 19/3/1 17/3/1 16/3/1
f 19/1/1 16/1/1 18/1/1
f 20/3/1 17/3/1 19/3/1
f 23/1/1 22/1/1 21/1/1
f 24/1/1 23/1/1 21/1/1
f 25/1/1 24/1/1 21/1/1
f 26/1/1 25/1/1 21/1/1
f 27/1/1 26/1/1 21/1/1
f 28/1/1 27/1/1 21/1/1
f 29/1/1 28/1/1 21/1/1
f 30/1/1 29/1/1 21/1/1
f 31/1/1 30/1/1 21/1/1
f 32/1/1 31/1/1 21/1/1
f 33/1/1 31/1/1 32/1/1
f 41/3/1 35/3/1 34/3/1
f 42/4/1 36/4/1 35/4/1
f 42/3/1 35/3/1 41/3/1
f 43/3/1 37/3/1 36/3/1
f 43/4/1 36/4/1 42/4/1
f 44/4/1 38/4/1 37/4/1
f 44/3/1 37/3/1 43/3/1
f 45/3/1 39/3/1 38/3/1
f 45/4/1 38/4/1 44/4/1
f 46/2/1 40/2/1 39/2/1
f 46/3/1 39/3/1 45/3/1
f 47/2/1 40/2/1 46/2/1
f 48/3/1 45/3/1 44/3/1
f 48/3/1 42/3/1 41/3/1
f 48/3/1 47/3/1 46/3/1
f 48/3/1 46/3/1 45/3/1
f 48/3/1 44/3/1 43/3/1
f 48/3/1 43/3/1 42/3/1
f 49/3/1 47/3/1 48/3/1
f 50/3/1 47/3/1 49/3/1
f 51/3/1 47/3/1 50/3/1
f 52/3/1 47/3/1 51/3/1
f 53/3/1 47/3/1 52/3/1
f 54/4/1 49/4/1 48/4/1
f 55/3/1 50/3/1 49/3/1
f 55/4/1 49/4/1 54/4/1
f 56/2/1 51/2/1 50/2/1
f 56/3/1 50/3/1 55/3/1
f 57/3/1 52/3/1 51/3/1
f 57/2/1 51/2/1 56/2/1
f 58/4/1 53/4/1 52/4/1
f 58/3/1 52/3/1 57/3/1
f 59/3/1 47/3/1 53/3/1
f 59/4/1 53/4/1 58/4/1
f 60/3/1 58/3/1 57/3/1
f 60/3/1 55/3/1 54/3/1
f 60/3/1 59/3/1 58/3/1
f 60/3/1 57/3/1 56/3/1
f 60/3/1 56/3/1 55/3/1
f 61/3/1 59/3/1 60/3/1
f 62/3/1 59/3/1 61/3/1
f 63/3/1 59/3/1 62/3/1
f 64/3/1 59/3/1 63/3/1
f 65/3/1 59/3/1 64/3/1
f 66/3/1 59/3/1 65/3/1
f 67/3/1 47/3/1 59/3/1
f 67/3/1 59/3/1 66/3/1
f 68/4/1 61/4/1 60/4/1
f 69/3/1 62/3/1 61/3/1
f 69/4/1 61/4/1 68/4/1
f 70/4/1 63/4/1 62/4/1
f 70/3/1 62/3/1 69/3/1
f 71/3/1 64/3/1 63/3/1
f 71/4/1 63/4/1 70/4/1
f 72/2/1 65/2/1 64/2/1
f 72/3/1 64/3/1 71/3/1
f 73/3/1 66/3/1 65/3/1
f 73/2/1 65/2/1 72/2/1
f 74/4/1 67/4/1 66/4/1
f 74/3/1 66/3/1 73/3/1
f 75/4/1 67/4/1 74/4/1
f 76/3/1 72/3/1 71/3/1
f 76/3/1 69/3/1 68/3/1
f 76/3/1 75/3/1 74/3/1
f 76/3/1 74/3/1 73/3/1
f 76/3/1 73/3/1 72/3/1
f 76/3/1 71/3/1 70/3/1
f 76/3/1 70/3/1 69/3/1
f 77/3/1 75/3/1 76/3/1
f 78/3/1 75/3/1 77/3/1
f 79/3/1 75/3/1 78/3/1
f 80/3/1 75/3/1 79/3/1
f 81/3/1 75/3/1 80/3/1
f 82/3/1 75/3/1 81/3/1
f 83/3/1 77/3/1 76/3/1
f 84/4/1 78/4/1 77/4/1
f 84/3/1 77/3/1 83/3/1
f 85/3/1 79/3/1 78/3/1
f 85/4/1 78/4/1 84/4/1
f 86/2/1 80/2/1 79/2/1
f 86/3/1 79/3/1 85/3/1
f 87/3/1 81/3/1 80/3/1
f 87/2/1 80/2/1 86/2/1
f 88/4/1 82/4/1 81/4/1
f 88/3/1 81/3/1 87/3/1
f 89/4/1 82/4/1 88/4/1
f 90/3/1 84/3/1 83/3/1
f 90/3/1 85/3/1 84/3/1
f 90/3/1 89/3/1 88/3/1
f 90/3/1 88/3/1 87/3/1
f 90/3/1 87/3/1 86/3/1
f 90/3/1 86/3/1 85/3/1
f 91/3/1 89/3/1 90/3/1
f 92/3/1 89/3/1 91/3/1
f 93/3/1 89/3/1 92/3/1
f 94/3/1 89/3/1 93/3/1
f 95/3/1 89/3/1 94/3/1
f 96/2/1 91/2/1 90/2/1
f 97/3/1 92/3/1 91/3/1
f 97/2/1 91/2/1 96/2/1
f 98/4/1 93/4/1 92/4/1
f 98/3/1 92/3/1 97/3/1
f 99/3/1 94/3/1 93/3/1
f 99/4/1 93/4/1 98/4/1
f 100/2/1 95/2/1 94/2/1
f 100/3/1 94/3/1 99/3/1
f 101/3/1 89/3/1 95/3/1
f 101/2/1 95/2/1 100/2/1
f 102/3/1 100/3/1 99/3/1
f 102/3/1 97/3/1 96/3/1
f 102/3/1 101/3/1 100/3/1
f 102/3/1 99/3/1 98/3/1
f 102/3/1 98/3/1 97/3/1
f 103/3/1 89/3/1 101/3/1
f 103/3/1 101/3/1 102/3/1
f 104/1/2 105/1/2 106/1/2
f 104/1/2 106/1/2 107/1/2
f 104/1/2 107/1/2 108/1/2
f 104/1/2 108/1/2 109/1/2
f 104/1/2 109/1/2 110/1/2
f 104/1/2 110/1/2 111/1/2
f 104/1/2 111/1/2 112/1/2
f 104/1/2 112/1/2 113/1/2
f 104/1/2 113/1/2 114/1/2
f 104/1/2 114/1/2 115/1/2
f 115/1/2 114/1/2 116/1/2
f 117/1/2 118/1/2 119/1/2
f 117/1/2 119/1/2 120/1/2
f 117/1/2 120/1/2 121/1/2
f 117/1/2 121/1/2 122/1/2
f 117/1/2 122/1/2 123/1/2
f 117/1/2 123/1/2 124/1/2
f 124/1/2 123/1/2 125/1/2
f 126/2/2 127/2/2 135/2/2
f 127/3/2 128/3/2 136/3/2
f 135/2/2 127/2/2 136/2/2
f 129/4/2 130/4/2 137/4/2
f 130/3/2 131/3/2 138/3/2
f 137/4/2 130/4/2 138/4/2
f 131/4/2 132/4/2 139/4/2
f 138/3/2 131/3/2 139/3/2
f 132/3/2 133/3/2 140/3/2
f 139/4/2 132/4/2 140/4/2
f 133/2/2 134/2/2 141/2/2
f 140/3/2 133/3/2 141/3/2
f 141/2/2 134/2/2 142/2/2
f 135/3/2 136/3/2 143/3/2
f 136/3/2 128/3/2 144/3/2
f 143/3/2 136/3/2 144/3/2
f 139/3/2 140/3/2 145/3/2
f 137/3/2 138/3/2 145/3/2
f 141/3/2 142/3/2 145/3/2
f 140/3/2 141/3/2 145/3/2
f 138/3/2 139/3/2 145/3/2
f 145/3/2 142/3/2 146/3/2
f 146/3/2 142/3/2 147/3/2
f 147/3/2 142/3/2 148/3/2
f 143/4/2 144/4/2 149/4/2
f 149/4/2 144/4/2 150/4/2
f 137/3/2 145/3/2 151/3/2
f 145/2/2 146/2/2 151/2/2
f 146/3/2 147/3/2 152/3/2
f 151/2/2 146/2/2 152/2/2
f 147/4/2 148/4/2 153/4/2
f 152/3/2 147/3/2 153/3/2
f 153/4/2 148/4/2 154/4/2
f 149/3/2 150/3/2 155/3/2
f 155/3/2 150/3/2 156/3/2
f 137/3/2 151/3/2 157/3/2
f 151/3/2 152/3/2 157/3/2
f 152/3/2 153/3/2 157/3/2
f 153/3/2 154/3/2 157/3/2
f 157/3/2 154/3/2 158/3/2
f 158/3/2 154/3/2 159/3/2
f 159/3/2 154/3/2 160/3/2
f 160/3/2 154/3/2 161/3/2
f 161/3/2 154/3/2 162/3/2
f 155/4/2 156/4/2 163/4/2
f 163/4/2 156/4/2 164/4/2
f 157/4/2 158/4/2 165/4/2
f 158/3/2 159/3/2 166/3/2
f 165/4/2 158/4/2 166/4/2
f 159/2/2 160/2/2 167/2/2
f 166/3/2 159/3/2 167/3/2
f 160/3/2 161/3/2 168/3/2
f 167/2/2 160/2/2 168/2/2
f 161/4/2 162/4/2 169/4/2
f 168/3/2 161/3/2 169/3/2
f 169/4/2 162/4/2 170/4/2
f 163/3/2 164/3/2 171/3/2
f 171/3/2 164/3/2 172/3/2
f 165/3/2 166/3/2 173/3/2
f 166/3/2 167/3/2 173/3/2
f 167/3/2 168/3/2 173/3/2
f 168/3/2 169/3/2 173/3/2
f 169/3/2 170/3/2 173/3/2
f 173/3/2 170/3/2 174/3/2
f 174/3/2 170/3/2 175/3/2
f 175/3/2 170/3/2 176/3/2
f 176/3/2 170/3/2 177/3/2
f 177/3/2 170/3/2 178/3/2
f 171/4/2 172/4/2 179/4/2
f 172/3/2 164/3/2 180/3/2
f 179/4/2 172/4/2 180/4/2
f 173/4/2 174/4/2 181/4/2
f 174/3/2 175/3/2 182/3/2
f 181/4/2 174/4/2 182/4/2
f 175/2/2 176/2/2 183/2/2
f 182/3/2 175/3/2 183/3/2
f 176/3/2 177/3/2 184/3/2
f 183/2/2 176/2/2 184/2/2
f 177/4/2 178/4/2 185/4/2
f 184/3/2 177/3/2 185/3/2
f 185/4/2 178/4/2 186/4/2
f 179/3/2 180/3/2 187/3/2
f 180/3/2 164/3/2 188/3/2
f 187/3/2 180/3/2 188/3/2
f 181/3/2 182/3/2 189/3/2
f 182/3/2 183/3/2 189/3/2
f 185/3/2 186/3/2 189/3/2
f 184/3/2 185/3/2 189/3/2
f 183/3/2 184/3/2 189/3/2
f 189/3/2 186/3/2 190/3/2
f 190/3/2 186/3/2 191/3/2
f 191/3/2 186/3/2 192/3/2
f 187/2/2 188/2/2 193/2/2
f 193/2/2 188/2/2 194/2/2
f 181/3/2 189/3/2 195/3/2
f 189/4/2 190/4/2 195/4/2
f 190/3/2 191/3/2 196/3/2
f 195/4/2 190/4/2 196/4/2
f 191/2/2 192/2/2 197/2/2
f 196/3/2 191/3/2 197/3/2
f 197/2/2 192/2/2 198/2/2
f 193/3/2 194/3/2 199/3/2
f 199/3/2 194/3/2 200/3/2
f 181/3/2 195/3/2 201/3/2
f 195/3/2 196/3/2 201/3/2
f 196/3/2 197/3/2 201/3/2
f 197/3/2 198/3/2 201/3/2
f 201/3/2 198/3/2 202/3/2
f 203/1/2 204/1/2 207/1/2
f 207/1/2 204/1/2 208/1/2
f 205/1/2 206/1/2 209/1/2
f 209/1/2 206/1/2 210/1/2
f 213/1/3 212/1/3 211/1/3
f 214/1/3 212/1/3 213/1/3
f 217/1/3 216/1/3 215/1/3
f 218/1/3 216/1/3 217/1/3
f 230/3/3 221/3/3 220/3/3
f 230/4/3 222/4/3 221/4/3
f 231/3/3 223/3/3 222/3/3
f 231/4/3 222/4/3 230/4/3
f 232/3/3 230/3/3 220/3/3
f 232/3/3 231/3/3 230/3/3
f 233/3/3 223/3/3 231/3/3
f 233/3/3 231/3/3 232/3/3
f 234/4/3 228/4/3 227/4/3
f 234/3/3 227/3/3 226/3/3
f 235/3/3 229/3/3 228/3/3
f 235/4/3 228/4/3 234/4/3
f 236/3/3 234/3/3 226/3/3
f 236/3/3 235/3/3 234/3/3
f 237/3/3 229/3/3 235/3/3
f 237/3/3 235/3/3 236/3/3
f 238/4/3 220/4/3 219/4/3
f 239/3/3 232/3/3 220/3/3
f 239/4/3 220/4/3 238/4/3
f 240/3/3 225/3/3 224/3/3
f 240/2/3 226/2/3 225/2/3
f 241/3/3 236/3/3 226/3/3
f 241/2/3 226/2/3 240/2/3
f 242/3/3 239/3/3 238/3/3
f 243/3/3 232/3/3 239/3/3
f 243/3/3 239/3/3 242/3/3
f 244/3/3 240/3/3 224/3/3
f 244/3/3 241/3/3 240/3/3
f 245/3/3 236/3/3 241/3/3
f 245/3/3 241/3/3 244/3/3
f 246/3/3 223/3/3 233/3/3
f 246/4/3 224/4/3 223/4/3
f 247/3/3 244/3/3 224/3/3
f 247/4/3 224/4/3 246/4/3
f 248/3/3 246/3/3 233/3/3
f 248/3/3 247/3/3 246/3/3
f 249/3/3 244/3/3 247/3/3
f 249/3/3 247/3/3 248/3/3
f 250/3/3 232/3/3 243/3/3
f 250/2/3 233/2/3 232/2/3
f 251/3/3 248/3/3 233/3/3
f 251/2/3 233/2/3 250/2/3
f 252/3/3 236/3/3 245/3/3
f 252/4/3 237/4/3 236/4/3
f 253/3/3 229/3/3 237/3/3
f 253/4/3 237/4/3 252/4/3
f 254/3/3 250/3/3 243/3/3
f 254/3/3 251/3/3 250/3/3
f 255/3/3 248/3/3 251/3/3
f 255/3/3 251/3/3 254/3/3
f 256/3/3 252/3/3 245/3/3
f 256/3/3 253/3/3 252/3/3
f 257/3/3 229/3/3 253/3/3
f 257/3/3 253/3/3 256/3/3
f 258/4/3 243/4/3 242/4/3
f 259/3/3 254/3/3 243/3/3
f 259/4/3 243/4/3 258/4/3
f 260/3/3 244/3/3 249/3/3
f 260/2/3 245/2/3 244/2/3
f 261/3/3 256/3/3 245/3/3
f 261/2/3 245/2/3 260/2/3
f 262/3/3 259/3/3 258/3/3
f 263/3/3 254/3/3 259/3/3
f 263/3/3 259/3/3 262/3/3
f 264/3/3 260/3/3 249/3/3
f 264/3/3 261/3/3 260/3/3
f 265/3/3 256/3/3 261/3/3
f 265/3/3 261/3/3 264/3/3
f 266/2/3 263/2/3 262/2/3
f 267/3/3 254/3/3 263/3/3
f 267/2/3 263/2/3 266/2/3
f 268/4/3 255/4/3 254/4/3
f 268/3/3 254/3/3 267/3/3
f 269/3/3 248/3/3 255/3/3
f 269/4/3 255/4/3 268/4/3
f 270/2/3 249/2/3 248/2/3
f 270/3/3 248/3/3 269/3/3
f 271/3/3 264/3/3 249/3/3
f 271/2/3 249/2/3 270/2/3
f 272/4/3 265/4/3 264/4/3
f 272/3/3 264/3/3 271/3/3
f 273/3/3 256/3/3 265/3/3
f 273/4/3 265/4/3 272/4/3
f 274/2/3 257/2/3 256/2/3
f 274/3/3 256/3/3 273/3/3
f 275/3/3 229/3/3 257/3/3
f 275/2/3 257/2/3 274/2/3
f 276/3/3 229/3/3 275/3/3
f 284/3/3 279/3/3 278/3/3
f 285/3/3 279/3/3 284/3/3
f 286/3/3 283/3/3 282/3/3
f 287/3/3 283/3/3 286/3/3
f 288/2/3 278/2/3 277/2/3
f 289/3/3 284/3/3 278/3/3
f 289/2/3 278/2/3 288/2/3
f 290/4/3 285/4/3 284/4/3
f 290/3/3 284/3/3 289/3/3
f 291/3/3 279/3/3 285/3/3
f 291/4/3 285/4/3 290/4/3
f 292/4/3 280/4/3 279/4/3
f 292/3/3 279/3/3 291/3/3
f 293/3/3 281/3/3 280/3/3
f 293/4/3 280/4/3 292/4/3
f 294/4/3 282/4/3 281/4/3
f 294/3/3 281/3/3 293/3/3
f 295/3/3 286/3/3 282/3/3
f 295/4/3 282/4/3 294/4/3
f 296/2/3 287/2/3 286/2/3
f 296/3/3 286/3/3 295/3/3
f 297/3/3 283/3/3 287/3/3
f 297/2/3 287/2/3 296/2/3
f 298/3/3 283/3/3 297/3/3
f 307/1/3 300/1/3 299/1/3
f 307/1/3 306/1/3 305/1/3
f 307/1/3 305/1/3 304/1/3
f 307/1/3 304/1/3 303/1/3
f 307/1/3 303/1/3 302/1/3
f 307/1/3 302/1/3 301/1/3
f 307/1/3 301/1/3 300/1/3
f 308/1/3 306/1/3 307/1/3
f 320/1/3 310/1/3 309/1/3
f 320/1/3 319/1/3 318/1/3
f 320/1/3 318/1/3 317/1/3
f 320/1/3 317/1/3 316/1/3
f 320/1/3 316/1/3 315/1/3
f 320/1/3 315/1/3 314/1/3
f 320/1/3 314/1/3 313/1/3
f 320/1/3 313/1/3 312/1/3
f 320/1/3 312/1/3 311/1/3
f 320/1/3 311/1/3 310/1/3
f 321/1/3 319/1/3 320/1/3
f 325/3/4 326/3/4 331/3/4
f 331/3/4 326/3/4 332/3/4
f 323/3/4 324/3/4 333/3/4
f 324/4/4 325/4/4 333/4/4
f 325/3/4 331/3/4 334/3/4
f 333/4/4 325/4/4 334/4/4
f 323/3/4 333/3/4 335/3/4
f 333/3/4 334/3/4 335/3/4
f 334/3/4 331/3/4 336/3/4
f 335/3/4 334/3/4 336/3/4
f 327/3/4 328/3/4 337/3/4
f 328/4/4 329/4/4 337/4/4
f 329/3/4 330/3/4 338/3/4
f 337/4/4 329/4/4 338/4/4
f 327/3/4 337/3/4 339/3/4
f 337/3/4 338/3/4 339/3/4
f 338/3/4 330/3/4 340/3/4
f 339/3/4 338/3/4 340/3/4
f 322/4/4 323/4/4 341/4/4
f 323/3/4 335/3/4 342/3/4
f 341/4/4 323/4/4 342/4/4
f 332/3/4 326/3/4 343/3/4
f 326/2/4 327/2/4 343/2/4
f 327/3/4 339/3/4 344/3/4
f 343/2/4 327/2/4 344/2/4
f 341/3/4 342/3/4 345/3/4
f 342/3/4 335/3/4 346/3/4
f 345/3/4 342/3/4 346/3/4
f 332/3/4 343/3/4 347/3/4
f 343/3/4 344/3/4 347/3/4
f 344/3/4 339/3/4 348/3/4
f 347/3/4 344/3/4 348/3/4
f 331/4/4 332/4/4 349/4/4
f 336/3/4 331/3/4 349/3/4
f 332/3/4 347/3/4 350/3/4
f 349/4/4 332/4/4 350/4/4
f 336/3/4 349/3/4 351/3/4
f 349/3/4 350/3/4 351/3/4
f 350/3/4 347/3/4 352/3/4
f 351/3/4 350/3/4 352/3/4
f 346/3/4 335/3/4 353/3/4
f 335/2/4 336/2/4 353/2/4
f 336/3/4 351/3/4 354/3/4
f 353/2/4 336/2/4 354/2/4
f 348/3/4 339/3/4 355/3/4
f 339/4/4 340/4/4 355/4/4
f 340/3/4 330/3/4 356/3/4
f 355/4/4 340/4/4 356/4/4
f 346/3/4 353/3/4 357/3/4
f 353/3/4 354/3/4 357/3/4
f 354/3/4 351/3/4 358/3/4
f 357/3/4 354/3/4 358/3/4
f 348/3/4 355/3/4 359/3/4
f 355/3/4 356/3/4 359/3/4
f 356/3/4 330/3/4 360/3/4
f 359/3/4 356/3/4 360/3/4
f 345/4/4 346/4/4 361/4/4
f 346/3/4 357/3/4 362/3/4
f 361/4/4 346/4/4 362/4/4
f 352/3/4 347/3/4 363/3/4
f 347/2/4 348/2/4 363/2/4
f 348/3/4 359/3/4 364/3/4
f 363/2/4 348/2/4 364/2/4
f 361/3/4 362/3/4 365/3/4
f 362/3/4 357/3/4 366/3/4
f 365/3/4 362/3/4 366/3/4
f 352/3/4 363/3/4 367/3/4
f 363/3/4 364/3/4 367/3/4
f 364/3/4 359/3/4 368/3/4
f 367/3/4 364/3/4 368/3/4
f 358/3/4 351/3/4 369/3/4
f 351/2/4 352/2/4 369/2/4
f 352/3/4 367/3/4 370/3/4
f 369/2/4 352/2/4 370/2/4
f 358/3/4 369/3/4 371/3/4
f 369/3/4 370/3/4 371/3/4
f 370/3/4 367/3/4 372/3/4
f 371/3/4 370/3/4 372/3/4
f 366/3/4 357/3/4 373/3/4
f 357/4/4 358/4/4 373/4/4
f 358/3/4 371/3/4 374/3/4
f 373/4/4 358/4/4 374/4/4
f 368/3/4 359/3/4 375/3/4
f 359/2/4 360/2/4 375/2/4
f 360/3/4 330/3/4 376/3/4
f 375/2/4 360/2/4 376/2/4
f 365/2/4 366/2/4 377/2/4
f 366/3/4 373/3/4 378/3/4
f 377/2/4 366/2/4 378/2/4
f 373/3/4 374/3/4 378/3/4
f 378/3/4 374/3/4 379/3/4
f 374/3/4 371/3/4 380/3/4
f 379/3/4 374/3/4 380/3/4
f 371/4/4 372/4/4 381/4/4
f 380/3/4 371/3/4 381/3/4
f 372/3/4 367/3/4 382/3/4
f 381/4/4 372/4/4 382/4/4
f 367/4/4 368/4/4 383/4/4
f 382/3/4 367/3/4 383/3/4
f 368/3/4 375/3/4 384/3/4
f 383/4/4 368/4/4 384/4/4
f 375/3/4 376/3/4 384/3/4
f 384/3/4 376/3/4 385/3/4
f 376/3/4 330/3/4 386/3/4
f 385/3/4 376/3/4 386/3/4
f 386/3/4 330/3/4 387/3/4
f 388/1/4 389/1/4 395/1/4
f 393/1/4 394/1/4 395/1/4
f 392/1/4 393/1/4 395/1/4
f 391/1/4 392/1/4 395/1/4
f 390/1/4 391/1/4 395/1/4
f 389/1/4 390/1/4 395/1/4
f 395/1/4 394/1/4 396/1/4
f 397/2/4 398/2/4 404/2/4
f 398/3/4 399/3/4 405/3/4
f 404/2/4 398/2/4 405/2/4
f 399/4/4 400/4/4 406/4/4
f 405/3/4 399/3/4 406/3/4
f 400/3/4 401/3/4 407/3/4
f 406/4/4 400/4/4 407/4/4
f 401/4/4 402/4/4 408/4/4
f 407/3/4 401/3/4 408/3/4
f 402/3/4 403/3/4 409/3/4
f 408/4/4 402/4/4 409/4/4
f 409/3/4 403/3/4 410/3/4
f 407/1/4 408/1/4 411/1/4
f 404/1/4 405/1/4 411/1/4
f 409/1/4 410/1/4 411/1/4
f 408/1/4 409/1/4 411/1/4
f 406/1/4 407/1/4 411/1/4
f 405/1/4 406/1/4 411/1/4
f 411/1/4 410/1/4 412/1/4
f 417/1/5 414/1/5 413/1/5
f 418/1/5 414/1/5 417/1/5
f 423/1/5 416/1/5 415/1/5
f 424/1/5 416/1/5 423/1/5
f 426/4/5 418/4/5 417/4/5
f 426/4/5 419/4/5 418/4/5
f 427/3/5 420/3/5 419/3/5
f 427/4/5 419/4/5 426/4/5
f 428/4/5 421/4/5 420/4/5
f 428/3/5 420/3/5 427/3/5
f 429/3/5 422/3/5 421/3/5
f 429/4/5 421/4/5 428/4/5
f 430/2/5 425/2/5 424/2/5
f 430/3/5 422/3/5 429/3/5
f 430/2/5 424/2/5 423/2/5
f 430/2/5 423/2/5 422/2/5
f 431/2/5 425/2/5 430/2/5
f 432/2/5 425/2/5 431/2/5
f 433/3/5 432/3/5 431/3/5
f 434/3/5 432/3/5 433/3/5
f 436/4/5 434/4/5 433/4/5
f 436/1/5 435/1/5 434/1/5
f 437/1/5 435/1/5 436/1/5
f 438/4/5 436/4/5 433/4/5
f 439/4/5 436/4/5 438/4/5
f 440/3/5 439/3/5 438/3/5
f 441/3/5 439/3/5 440/3/5
f 442/4/5 441/4/5 440/4/5
f 443/4/5 441/4/5 442/4/5
f 444/3/5 443/3/5 442/3/5
f 445/3/5 443/3/5 444/3/5
f 446/2/5 445/2/5 444/2/5
f 448/2/5 446/2/5 444/2/5
f 449/1/5 447/1/5 446/1/5
f 449/2/5 446/2/5 448/2/5
f 450/1/5 447/1/5 449/1/5
f 451/1/6 452/1/6 455/1/6
f 455/1/6 452/1/6 456/1/6
f 453/1/6 454/1/6 457/1/6
f 457/1/6 454/1/6 458/1/6
f 455/3/6 456/3/6 460/3/6
f 458/3/6 459/3/6 460/3/6
f 457/3/6 458/3/6 460/3/6
f 456/3/6 457/3/6 460/3/6
f 460/3/6 459/3/6 461/3/6
f 461/3/6 459/3/6 462/3/6
f 461/3/6 462/3/6 464/3/6
f 462/1/6 463/1/6 464/1/6
f 464/1/6 463/1/6 465/1/6
f 461/3/6 464/3/6 466/3/6
f 461/3/6 466/3/6 468/3/6
f 466/1/6 467/1/6 469/1/6
f 468/3/6 466/3/6 469/3/6
f 469/1/6 467/1/6 470/1/6
