{
	"asset":{
		"generator":"Khronos glTF Blender I/O v3.6.6",
		"version":"2.0"
	},
	"scene":0,
	"scenes":[
		{
			"name":"Scene",
			"nodes":[
				0
			]
		}
	],
	"nodes":[
		{
			"mesh":0,
			"name":"w_short_full",
			"translation":[
				-2,
				0,
				0
			]
		}
	],
	"meshes":[
		{
			"name":"Cube.004",
			"primitives":[
				{
					"attributes":{
						"POSITION":0,
						"TEXCOORD_0":1,
						"NORMAL":2
					},
					"indices":3
				}
			]
		}
	],
	"accessors":[
		{
			"bufferView":0,
			"componentType":5126,
			"count":79,
			"max":[
				1.5,
				4,
				0.5
			],
			"min":[
				-1.5,
				0,
				-0.5
			],
			"type":"VEC3"
		},
		{
			"bufferView":1,
			"componentType":5126,
			"count":79,
			"type":"VEC2"
		},
		{
			"bufferView":2,
			"componentType":5126,
			"count":79,
			"type":"VEC3"
		},
		{
			"bufferView":3,
			"componentType":5123,
			"count":174,
			"type":"SCALAR"
		}
	],
	"bufferViews":[
		{
			"buffer":0,
			"byteLength":948,
			"byteOffset":0,
			"target":34962
		},
		{
			"buffer":0,
			"byteLength":632,
			"byteOffset":948,
			"target":34962
		},
		{
			"buffer":0,
			"byteLength":948,
			"byteOffset":1580,
			"target":34962
		},
		{
			"buffer":0,
			"byteLength":348,
			"byteOffset":2528,
			"target":34963
		}
	],
	"buffers":[
		{
			"byteLength":2876,
			"uri":"w-short-full.bin"
		}
	]
}
